<svg width="1000" height="1000" viewBox="0 0 1000 1000" fill="none" xmlns="http://www.w3.org/2000/svg">
<rect width="1000" height="1000" rx="500" fill="#07663B"/>
<path d="M500 660C422 660 355.833 632.833 301.5 578.5C247.167 524.167 220 458 220 380C220 302 247.167 235.833 301.5 181.5C355.833 127.167 422 100 500 100C578 100 644.167 127.167 698.5 181.5C752.833 235.833 780 302 780 380C780 458 752.833 524.167 698.5 578.5C644.167 632.833 578 660 500 660ZM500 580C555.333 580 602.5 560.5 641.5 521.5C680.5 482.5 700 435.333 700 380C700 324.667 680.5 277.5 641.5 238.5C602.5 199.5 555.333 180 500 180C444.667 180 397.5 199.5 358.5 238.5C319.5 277.5 300 324.667 300 380C300 435.333 319.5 482.5 358.5 521.5C397.5 560.5 444.667 580 500 580ZM460 900V860C460 838 452.167 819.167 436.5 803.5C420.833 787.833 402 780 380 780H300V700H700V780H620C598 780 579.167 787.833 563.5 803.5C547.833 819.167 540 838 540 860V900H460Z" fill="#F4F4F4"/>
<path d="M590 528.6C582.333 536.267 572.833 540.1 561.5 540.1C550.167 540.1 540.667 536.267 533 528.6C525.333 520.933 521.5 511.433 521.5 500.1C521.5 488.767 525.333 479.267 533 471.6C540.667 463.933 550.167 460.1 561.5 460.1C572.833 460.1 582.333 463.933 590 471.6C597.667 479.267 601.5 488.767 601.5 500.1C601.5 511.433 597.667 520.933 590 528.6Z" fill="#F4F4F4"/>
<path d="M658.5 437C650.833 444.667 641.333 448.5 630 448.5C618.667 448.5 609.167 444.667 601.5 437C593.833 429.333 590 419.833 590 408.5C590 397.167 593.833 387.667 601.5 380C609.167 372.333 618.667 368.5 630 368.5C641.333 368.5 650.833 372.333 658.5 380C666.167 387.667 670 397.167 670 408.5C670 419.833 666.167 429.333 658.5 437Z" fill="#F4F4F4"/>
<path d="M521.5 437C513.833 444.667 504.333 448.5 493 448.5C481.667 448.5 472.167 444.667 464.5 437C456.833 429.333 453 419.833 453 408.5C453 397.167 456.833 387.667 464.5 380C472.167 372.333 481.667 368.5 493 368.5C504.333 368.5 513.833 372.333 521.5 380C529.167 387.667 533 397.167 533 408.5C533 419.833 529.167 429.333 521.5 437Z" fill="#F4F4F4"/>
</svg>
