<svg width="1000" height="1000" viewBox="0 0 1000 1000" fill="none" xmlns="http://www.w3.org/2000/svg">
<rect width="1000" height="1000" rx="100" fill="#5CB85C"/>
<path d="M500 670C417.125 670 346.823 641.135 289.094 583.406C231.365 525.677 202.5 455.375 202.5 372.5C202.5 289.625 231.365 219.323 289.094 161.594C346.823 103.865 417.125 75 500 75C582.875 75 653.177 103.865 710.906 161.594C768.635 219.323 797.5 289.625 797.5 372.5C797.5 455.375 768.635 525.677 710.906 583.406C653.177 641.135 582.875 670 500 670ZM500 585C558.792 585 608.906 564.281 650.344 522.844C691.781 481.406 712.5 431.292 712.5 372.5C712.5 313.708 691.781 263.594 650.344 222.156C608.906 180.719 558.792 160 500 160C441.208 160 391.094 180.719 349.656 222.156C308.219 263.594 287.5 313.708 287.5 372.5C287.5 431.292 308.219 481.406 349.656 522.844C391.094 564.281 441.208 585 500 585ZM457.5 925V882.5C457.5 859.125 449.177 839.115 432.531 822.469C415.885 805.823 395.875 797.5 372.5 797.5H287.5V712.5H712.5V797.5H627.5C604.125 797.5 584.115 805.823 567.469 822.469C550.823 839.115 542.5 859.125 542.5 882.5V925H457.5Z" fill="white"/>
<path d="M595.625 530.388C587.479 538.533 577.385 542.606 565.344 542.606C553.302 542.606 543.208 538.533 535.063 530.388C526.917 522.242 522.844 512.148 522.844 500.106C522.844 488.065 526.917 477.971 535.063 469.825C543.208 461.679 553.302 457.606 565.344 457.606C577.385 457.606 587.479 461.679 595.625 469.825C603.771 477.971 607.844 488.065 607.844 500.106C607.844 512.148 603.771 522.242 595.625 530.388Z" fill="white"/>
<path d="M668.406 433.063C660.26 441.208 650.167 445.281 638.125 445.281C626.083 445.281 615.99 441.208 607.844 433.063C599.698 424.917 595.625 414.823 595.625 402.781C595.625 390.74 599.698 380.646 607.844 372.5C615.99 364.354 626.083 360.281 638.125 360.281C650.167 360.281 660.26 364.354 668.406 372.5C676.552 380.646 680.625 390.74 680.625 402.781C680.625 414.823 676.552 424.917 668.406 433.063Z" fill="white"/>
<path d="M522.844 433.063C514.698 441.208 504.604 445.281 492.563 445.281C480.521 445.281 470.427 441.208 462.281 433.063C454.135 424.917 450.063 414.823 450.063 402.781C450.063 390.74 454.135 380.646 462.281 372.5C470.427 364.354 480.521 360.281 492.563 360.281C504.604 360.281 514.698 364.354 522.844 372.5C530.99 380.646 535.063 390.74 535.063 402.781C535.063 414.823 530.99 424.917 522.844 433.063Z" fill="white"/>
</svg>
