<svg width="3689" height="650" viewBox="0 0 3689 650" fill="none" xmlns="http://www.w3.org/2000/svg">
<path d="M227.691 455C164.316 455 110.556 432.927 66.4102 388.781C22.2643 344.635 0.191406 290.875 0.191406 227.5C0.191406 164.125 22.2643 110.365 66.4102 66.2188C110.556 22.0729 164.316 0 227.691 0C291.066 0 344.827 22.0729 388.973 66.2188C433.119 110.365 455.191 164.125 455.191 227.5C455.191 290.875 433.119 344.635 388.973 388.781C344.827 432.927 291.066 455 227.691 455ZM227.691 390C272.65 390 310.973 374.156 342.66 342.469C374.348 310.781 390.191 272.458 390.191 227.5C390.191 182.542 374.348 144.219 342.66 112.531C310.973 80.8437 272.65 65 227.691 65C182.733 65 144.41 80.8437 112.723 112.531C81.0352 144.219 65.1914 182.542 65.1914 227.5C65.1914 272.458 81.0352 310.781 112.723 342.469C144.41 374.156 182.733 390 227.691 390ZM195.191 650V617.5C195.191 599.625 188.827 584.323 176.098 571.594C163.369 558.865 148.066 552.5 130.191 552.5H65.1914V487.5H390.191V552.5H325.191C307.316 552.5 292.014 558.865 279.285 571.594C266.556 584.323 260.191 599.625 260.191 617.5V650H195.191Z" fill="#07663B"/>
<path d="M300.816 348.237C294.587 354.467 286.869 357.581 277.66 357.581C268.452 357.581 260.733 354.467 254.504 348.237C248.275 342.008 245.16 334.29 245.16 325.081C245.16 315.873 248.275 308.154 254.504 301.925C260.733 295.696 268.452 292.581 277.66 292.581C286.869 292.581 294.587 295.696 300.816 301.925C307.046 308.154 310.16 315.873 310.16 325.081C310.16 334.29 307.046 342.008 300.816 348.237Z" fill="#07663B"/>
<path d="M356.473 273.812C350.244 280.042 342.525 283.156 333.316 283.156C324.108 283.156 316.389 280.042 310.16 273.812C303.931 267.583 300.816 259.865 300.816 250.656C300.816 241.448 303.931 233.729 310.16 227.5C316.389 221.271 324.108 218.156 333.316 218.156C342.525 218.156 350.244 221.271 356.473 227.5C362.702 233.729 365.816 241.448 365.816 250.656C365.816 259.865 362.702 267.583 356.473 273.812Z" fill="#07663B"/>
<path d="M245.16 273.812C238.931 280.042 231.212 283.156 222.004 283.156C212.796 283.156 205.077 280.042 198.848 273.812C192.619 267.583 189.504 259.865 189.504 250.656C189.504 241.448 192.619 233.729 198.848 227.5C205.077 221.271 212.796 218.156 222.004 218.156C231.212 218.156 238.931 221.271 245.16 227.5C251.389 233.729 254.504 241.448 254.504 250.656C254.504 259.865 251.389 267.583 245.16 273.812Z" fill="#07663B"/>
<path d="M3521.45 522.497C3492.09 522.497 3463.39 518.992 3435.35 511.982C3407.31 504.533 3384.96 495.332 3368.31 484.378L3402.49 410.768C3418.26 420.846 3437.32 429.171 3459.67 435.743C3482.01 441.877 3503.92 444.944 3525.39 444.944C3568.77 444.944 3590.46 434.21 3590.46 412.74C3590.46 402.663 3584.54 395.433 3572.71 391.052C3560.88 386.67 3542.7 382.946 3518.16 379.879C3489.24 375.497 3465.36 370.458 3446.52 364.762C3427.68 359.066 3411.25 348.989 3397.23 334.53C3383.65 320.071 3376.86 299.478 3376.86 272.75C3376.86 250.404 3383.21 230.688 3395.92 213.6C3409.06 196.073 3427.9 182.491 3452.44 172.851C3477.41 163.212 3506.77 158.392 3540.51 158.392C3565.48 158.392 3590.24 161.24 3614.77 166.936C3639.75 172.194 3660.34 179.643 3676.55 189.282L3642.38 262.235C3611.27 244.708 3577.31 235.945 3540.51 235.945C3518.6 235.945 3502.17 239.012 3491.21 245.147C3480.26 251.281 3474.78 259.168 3474.78 268.807C3474.78 279.761 3480.7 287.428 3492.53 291.81C3504.36 296.191 3523.2 300.354 3549.05 304.297C3577.97 309.117 3601.63 314.375 3620.03 320.071C3638.43 325.329 3654.43 335.187 3668.01 349.646C3681.59 364.105 3688.38 384.26 3688.38 410.111C3688.38 432.019 3681.81 451.517 3668.67 468.605C3655.52 485.693 3636.24 499.056 3610.83 508.696C3585.86 517.897 3556.06 522.497 3521.45 522.497Z" fill="#07663B"/>
<path d="M3218.66 210.313C3230.92 193.225 3247.35 180.3 3267.95 171.537C3288.98 162.774 3313.08 158.392 3340.24 158.392V253.033C3328.85 252.157 3321.18 251.719 3317.24 251.719C3287.88 251.719 3264.88 260.044 3248.23 276.694C3231.58 292.905 3223.26 317.442 3223.26 350.303V517.24H3120.73V163.65H3218.66V210.313Z" fill="#07663B"/>
<path d="M2884.22 440.344C2902.62 440.344 2918.83 437.715 2932.85 432.457C2947.31 426.761 2960.67 417.998 2972.94 406.168L3027.49 465.319C2994.19 503.438 2945.56 522.497 2881.59 522.497C2841.72 522.497 2806.44 514.83 2775.77 499.494C2745.1 483.721 2721.44 462.032 2704.79 434.429C2688.14 406.825 2679.82 375.497 2679.82 340.445C2679.82 305.831 2687.92 274.722 2704.14 247.118C2720.79 219.077 2743.35 197.388 2771.83 182.053C2800.75 166.279 2833.17 158.392 2869.1 158.392C2902.84 158.392 2933.51 165.622 2961.11 180.081C2988.72 194.102 3010.62 214.695 3026.84 241.86C3043.49 268.588 3051.81 300.354 3051.81 337.159L2790.23 387.765C2797.68 405.292 2809.29 418.436 2825.07 427.199C2841.28 435.962 2860.99 440.344 2884.22 440.344ZM2869.1 235.945C2843.25 235.945 2822.22 244.27 2806.01 260.92C2789.79 277.57 2781.25 300.573 2780.37 329.929L2952.57 296.41C2947.75 278.008 2937.89 263.33 2922.99 252.376C2908.1 241.422 2890.13 235.945 2869.1 235.945Z" fill="#07663B"/>
<path d="M2610.68 163.65V458.089C2610.68 522.936 2593.81 571.132 2560.08 602.679C2526.34 634.226 2477.05 650 2412.2 650C2378.02 650 2345.6 645.838 2314.93 637.513C2284.26 629.188 2258.85 617.138 2238.69 601.365L2279.44 527.755C2294.34 540.024 2313.18 549.663 2335.96 556.673C2358.74 564.122 2381.53 567.846 2404.31 567.846C2439.8 567.846 2465.87 559.74 2482.52 543.529C2499.61 527.755 2508.15 503.657 2508.15 471.234V456.117C2481.43 485.474 2444.18 500.152 2396.43 500.152C2364 500.152 2334.21 493.141 2307.04 479.12C2280.31 464.661 2259.06 444.506 2243.29 418.655C2227.52 392.804 2219.63 363.01 2219.63 329.272C2219.63 295.534 2227.52 265.74 2243.29 239.889C2259.06 214.038 2280.31 194.102 2307.04 180.081C2334.21 165.622 2364 158.392 2396.43 158.392C2447.69 158.392 2486.69 175.261 2513.41 208.999V163.65H2610.68ZM2416.8 416.026C2443.97 416.026 2466.09 408.14 2483.18 392.366C2500.71 376.154 2509.47 355.123 2509.47 329.272C2509.47 303.421 2500.71 282.609 2483.18 266.835C2466.09 250.624 2443.97 242.518 2416.8 242.518C2389.63 242.518 2367.29 250.624 2349.76 266.835C2332.24 282.609 2323.47 303.421 2323.47 329.272C2323.47 355.123 2332.24 376.154 2349.76 392.366C2367.29 408.14 2389.63 416.026 2416.8 416.026Z" fill="#07663B"/>
<path d="M2002.57 158.392C2046.39 158.392 2081.66 171.537 2108.38 197.826C2135.55 224.115 2149.13 263.111 2149.13 314.813V517.24H2046.6V330.586C2046.6 302.545 2040.47 281.732 2028.2 268.15C2015.93 254.129 1998.19 247.118 1974.97 247.118C1949.12 247.118 1928.52 255.224 1913.19 271.436C1897.85 287.209 1890.18 310.87 1890.18 342.417V517.24H1787.66V163.65H1885.58V205.056C1899.17 190.158 1916.03 178.766 1936.19 170.88C1956.35 162.555 1978.47 158.392 2002.57 158.392Z" fill="#07663B"/>
<path d="M1589.97 163.65H1692.5V517.24H1589.97V163.65ZM1641.24 114.358C1622.4 114.358 1607.06 108.881 1595.23 97.9272C1583.4 86.9734 1577.49 73.3906 1577.49 57.179C1577.49 40.9673 1583.4 27.3846 1595.23 16.4308C1607.06 5.47692 1622.4 0 1641.24 0C1660.08 0 1675.41 5.25784 1687.24 15.7735C1699.07 26.2892 1704.99 39.4338 1704.99 55.2073C1704.99 72.2953 1699.07 86.5352 1687.24 97.9272C1675.41 108.881 1660.08 114.358 1641.24 114.358Z" fill="#07663B"/>
<path d="M1497.82 163.65V358.847C1497.82 410.988 1483.58 451.298 1455.1 479.778C1426.62 508.258 1386.09 522.497 1333.52 522.497C1308.1 522.497 1285.54 518.554 1265.82 510.667C1246.54 502.781 1230.33 490.074 1217.19 472.548C1204.04 490.074 1187.83 502.781 1168.55 510.667C1149.27 518.554 1126.49 522.497 1100.2 522.497C1047.18 522.497 1006.65 508.258 978.612 479.778C950.57 451.298 936.549 410.988 936.549 358.847V163.65H1039.08V350.961C1039.08 380.317 1044.12 402.005 1054.19 416.026C1064.27 429.609 1080.04 436.4 1101.51 436.4C1123.42 436.4 1139.63 429.39 1150.15 415.369C1160.66 401.348 1165.92 379.879 1165.92 350.961V163.65H1268.45V350.961C1268.45 379.879 1273.71 401.348 1284.22 415.369C1294.74 429.39 1310.95 436.4 1332.86 436.4C1354.33 436.4 1370.1 429.609 1380.18 416.026C1390.26 402.005 1395.29 380.317 1395.29 350.961V163.65H1497.82Z" fill="#07663B"/>
<path d="M708.326 522.497C678.97 522.497 650.271 518.992 622.229 511.982C594.187 504.533 571.841 495.332 555.191 484.378L589.367 410.768C605.141 420.846 624.201 429.171 646.546 435.743C668.892 441.877 690.8 444.944 712.269 444.944C755.646 444.944 777.335 434.21 777.335 412.74C777.335 402.663 771.42 395.433 759.59 391.052C747.76 386.67 729.576 382.946 705.04 379.879C676.122 375.497 652.242 370.458 633.402 364.762C614.561 359.066 598.13 348.989 584.11 334.53C570.527 320.071 563.735 299.478 563.735 272.75C563.735 250.404 570.089 230.688 582.795 213.6C595.94 196.073 614.78 182.491 639.317 172.851C664.292 163.212 693.648 158.392 727.386 158.392C752.36 158.392 777.116 161.24 801.652 166.936C826.627 172.194 847.22 179.643 863.432 189.282L829.256 262.235C798.147 244.708 764.19 235.945 727.386 235.945C705.478 235.945 689.047 239.012 678.093 245.147C667.14 251.281 661.663 259.168 661.663 268.807C661.663 279.761 667.578 287.428 679.408 291.81C691.238 296.191 710.078 300.354 735.93 304.297C764.848 309.117 788.508 314.375 806.91 320.071C825.313 325.329 841.305 335.187 854.888 349.646C868.471 364.105 875.262 384.26 875.262 410.111C875.262 432.019 868.69 451.517 855.545 468.605C842.401 485.693 823.122 499.056 797.709 508.696C772.734 517.897 742.94 522.497 708.326 522.497Z" fill="#07663B"/>
</svg>
