<svg width="3689" height="650" viewBox="0 0 3689 650" fill="none" xmlns="http://www.w3.org/2000/svg">
<path d="M227.5 455C164.125 455 110.365 432.927 66.2188 388.781C22.0729 344.635 0 290.875 0 227.5C0 164.125 22.0729 110.365 66.2188 66.2188C110.365 22.0729 164.125 0 227.5 0C290.875 0 344.635 22.0729 388.781 66.2188C432.927 110.365 455 164.125 455 227.5C455 290.875 432.927 344.635 388.781 388.781C344.635 432.927 290.875 455 227.5 455ZM227.5 390C272.458 390 310.781 374.156 342.469 342.469C374.156 310.781 390 272.458 390 227.5C390 182.542 374.156 144.219 342.469 112.531C310.781 80.8437 272.458 65 227.5 65C182.542 65 144.219 80.8437 112.531 112.531C80.8438 144.219 65 182.542 65 227.5C65 272.458 80.8438 310.781 112.531 342.469C144.219 374.156 182.542 390 227.5 390ZM195 650V617.5C195 599.625 188.635 584.323 175.906 571.594C163.177 558.865 147.875 552.5 130 552.5H65V487.5H390V552.5H325C307.125 552.5 291.823 558.865 279.094 571.594C266.365 584.323 260 599.625 260 617.5V650H195Z" fill="#F4F4F4"/>
<path d="M300.625 348.237C294.396 354.467 286.677 357.581 277.469 357.581C268.26 357.581 260.542 354.467 254.313 348.237C248.083 342.008 244.969 334.29 244.969 325.081C244.969 315.873 248.083 308.154 254.313 301.925C260.542 295.696 268.26 292.581 277.469 292.581C286.677 292.581 294.396 295.696 300.625 301.925C306.854 308.154 309.969 315.873 309.969 325.081C309.969 334.29 306.854 342.008 300.625 348.237Z" fill="#F4F4F4"/>
<path d="M356.281 273.812C350.052 280.042 342.333 283.156 333.125 283.156C323.917 283.156 316.198 280.042 309.969 273.812C303.74 267.583 300.625 259.865 300.625 250.656C300.625 241.448 303.74 233.729 309.969 227.5C316.198 221.271 323.917 218.156 333.125 218.156C342.333 218.156 350.052 221.271 356.281 227.5C362.51 233.729 365.625 241.448 365.625 250.656C365.625 259.865 362.51 267.583 356.281 273.812Z" fill="#F4F4F4"/>
<path d="M244.969 273.812C238.74 280.042 231.021 283.156 221.813 283.156C212.604 283.156 204.885 280.042 198.656 273.812C192.427 267.583 189.313 259.865 189.313 250.656C189.313 241.448 192.427 233.729 198.656 227.5C204.885 221.271 212.604 218.156 221.813 218.156C231.021 218.156 238.74 221.271 244.969 227.5C251.198 233.729 254.313 241.448 254.313 250.656C254.313 259.865 251.198 267.583 244.969 273.812Z" fill="#F4F4F4"/>
<path d="M3521.26 522.497C3491.9 522.497 3463.2 518.992 3435.16 511.982C3407.12 504.533 3384.77 495.332 3368.12 484.378L3402.3 410.768C3418.07 420.846 3437.13 429.171 3459.48 435.743C3481.82 441.877 3503.73 444.944 3525.2 444.944C3568.58 444.944 3590.27 434.21 3590.27 412.74C3590.27 402.663 3584.35 395.433 3572.52 391.052C3560.69 386.67 3542.51 382.946 3517.97 379.879C3489.05 375.497 3465.17 370.458 3446.33 364.762C3427.49 359.066 3411.06 348.989 3397.04 334.53C3383.46 320.071 3376.67 299.478 3376.67 272.75C3376.67 250.404 3383.02 230.688 3395.73 213.6C3408.87 196.073 3427.71 182.491 3452.25 172.851C3477.22 163.212 3506.58 158.392 3540.32 158.392C3565.29 158.392 3590.05 161.24 3614.58 166.936C3639.56 172.194 3660.15 179.643 3676.36 189.282L3642.19 262.235C3611.08 244.708 3577.12 235.945 3540.32 235.945C3518.41 235.945 3501.98 239.012 3491.02 245.147C3480.07 251.281 3474.59 259.168 3474.59 268.807C3474.59 279.761 3480.51 287.428 3492.34 291.81C3504.17 296.191 3523.01 300.354 3548.86 304.297C3577.78 309.117 3601.44 314.375 3619.84 320.071C3638.24 325.329 3654.24 335.187 3667.82 349.646C3681.4 364.105 3688.19 384.26 3688.19 410.111C3688.19 432.019 3681.62 451.517 3668.48 468.605C3655.33 485.693 3636.05 499.056 3610.64 508.696C3585.67 517.897 3555.87 522.497 3521.26 522.497Z" fill="#F4F4F4"/>
<path d="M3218.46 210.313C3230.73 193.225 3247.16 180.3 3267.76 171.537C3288.79 162.774 3312.89 158.392 3340.05 158.392V253.033C3328.66 252.157 3320.99 251.719 3317.05 251.719C3287.69 251.719 3264.69 260.044 3248.04 276.694C3231.39 292.905 3223.06 317.442 3223.06 350.303V517.24H3120.54V163.65H3218.46V210.313Z" fill="#F4F4F4"/>
<path d="M2884.03 440.344C2902.43 440.344 2918.64 437.715 2932.66 432.457C2947.12 426.761 2960.48 417.998 2972.75 406.168L3027.3 465.319C2994 503.438 2945.37 522.497 2881.4 522.497C2841.53 522.497 2806.25 514.83 2775.58 499.494C2744.91 483.721 2721.25 462.032 2704.6 434.429C2687.95 406.825 2679.63 375.497 2679.63 340.445C2679.63 305.831 2687.73 274.722 2703.95 247.118C2720.6 219.077 2743.16 197.388 2771.64 182.053C2800.56 166.279 2832.98 158.392 2868.91 158.392C2902.65 158.392 2933.32 165.622 2960.92 180.081C2988.53 194.102 3010.43 214.695 3026.65 241.86C3043.29 268.588 3051.62 300.354 3051.62 337.159L2790.04 387.765C2797.49 405.292 2809.1 418.436 2824.88 427.199C2841.09 435.962 2860.8 440.344 2884.03 440.344ZM2868.91 235.945C2843.06 235.945 2822.03 244.27 2805.82 260.92C2789.6 277.57 2781.06 300.573 2780.18 329.929L2952.38 296.41C2947.56 278.008 2937.7 263.33 2922.8 252.376C2907.91 241.422 2889.94 235.945 2868.91 235.945Z" fill="#F4F4F4"/>
<path d="M2610.49 163.65V458.089C2610.49 522.936 2593.62 571.132 2559.88 602.679C2526.15 634.226 2476.85 650 2412.01 650C2377.83 650 2345.41 645.838 2314.74 637.513C2284.07 629.188 2258.65 617.138 2238.5 601.365L2279.25 527.755C2294.14 540.024 2312.98 549.663 2335.77 556.673C2358.55 564.122 2381.34 567.846 2404.12 567.846C2439.61 567.846 2465.68 559.74 2482.33 543.529C2499.42 527.755 2507.96 503.657 2507.96 471.234V456.117C2481.23 485.474 2443.99 500.152 2396.23 500.152C2363.81 500.152 2334.02 493.141 2306.85 479.12C2280.12 464.661 2258.87 444.506 2243.1 418.655C2227.33 392.804 2219.44 363.01 2219.44 329.272C2219.44 295.534 2227.33 265.74 2243.1 239.889C2258.87 214.038 2280.12 194.102 2306.85 180.081C2334.02 165.622 2363.81 158.392 2396.23 158.392C2447.5 158.392 2486.49 175.261 2513.22 208.999V163.65H2610.49ZM2416.61 416.026C2443.77 416.026 2465.9 408.14 2482.99 392.366C2500.51 376.154 2509.28 355.123 2509.28 329.272C2509.28 303.421 2500.51 282.609 2482.99 266.835C2465.9 250.624 2443.77 242.518 2416.61 242.518C2389.44 242.518 2367.1 250.624 2349.57 266.835C2332.04 282.609 2323.28 303.421 2323.28 329.272C2323.28 355.123 2332.04 376.154 2349.57 392.366C2367.1 408.14 2389.44 416.026 2416.61 416.026Z" fill="#F4F4F4"/>
<path d="M2002.38 158.392C2046.19 158.392 2081.47 171.537 2108.19 197.826C2135.36 224.115 2148.94 263.111 2148.94 314.813V517.24H2046.41V330.586C2046.41 302.545 2040.28 281.732 2028.01 268.15C2015.74 254.129 1998 247.118 1974.78 247.118C1948.92 247.118 1928.33 255.224 1913 271.436C1897.66 287.209 1889.99 310.87 1889.99 342.417V517.24H1787.46V163.65H1885.39V205.056C1898.97 190.158 1915.84 178.766 1936 170.88C1956.15 162.555 1978.28 158.392 2002.38 158.392Z" fill="#F4F4F4"/>
<path d="M1589.78 163.65H1692.31V517.24H1589.78V163.65ZM1641.05 114.358C1622.21 114.358 1606.87 108.881 1595.04 97.9272C1583.21 86.9734 1577.29 73.3906 1577.29 57.179C1577.29 40.9673 1583.21 27.3846 1595.04 16.4308C1606.87 5.47692 1622.21 0 1641.05 0C1659.89 0 1675.22 5.25784 1687.05 15.7735C1698.88 26.2892 1704.8 39.4338 1704.8 55.2073C1704.8 72.2953 1698.88 86.5352 1687.05 97.9272C1675.22 108.881 1659.89 114.358 1641.05 114.358Z" fill="#F4F4F4"/>
<path d="M1497.63 163.65V358.847C1497.63 410.988 1483.39 451.298 1454.91 479.778C1426.43 508.258 1385.9 522.497 1333.32 522.497C1307.91 522.497 1285.35 518.554 1265.63 510.667C1246.35 502.781 1230.14 490.074 1216.99 472.548C1203.85 490.074 1187.64 502.781 1168.36 510.667C1149.08 518.554 1126.3 522.497 1100.01 522.497C1046.99 522.497 1006.46 508.258 978.42 479.778C950.378 451.298 936.357 410.988 936.357 358.847V163.65H1038.89V350.961C1038.89 380.317 1043.92 402.005 1054 416.026C1064.08 429.609 1079.85 436.4 1101.32 436.4C1123.23 436.4 1139.44 429.39 1149.96 415.369C1160.47 401.348 1165.73 379.879 1165.73 350.961V163.65H1268.26V350.961C1268.26 379.879 1273.52 401.348 1284.03 415.369C1294.55 429.39 1310.76 436.4 1332.67 436.4C1354.14 436.4 1369.91 429.609 1379.99 416.026C1390.06 402.005 1395.1 380.317 1395.1 350.961V163.65H1497.63Z" fill="#F4F4F4"/>
<path d="M708.134 522.497C678.778 522.497 650.079 518.992 622.037 511.982C593.996 504.533 571.65 495.332 555 484.378L589.176 410.768C604.949 420.846 624.009 429.171 646.355 435.743C668.701 441.877 690.608 444.944 712.078 444.944C755.455 444.944 777.144 434.21 777.144 412.74C777.144 402.663 771.229 395.433 759.398 391.052C747.568 386.67 729.385 382.946 704.848 379.879C675.93 375.497 652.051 370.458 633.21 364.762C614.37 359.066 597.939 348.989 583.918 334.53C570.335 320.071 563.544 299.478 563.544 272.75C563.544 250.404 569.897 230.688 582.604 213.6C595.748 196.073 614.589 182.491 639.125 172.851C664.1 163.212 693.456 158.392 727.194 158.392C752.169 158.392 776.924 161.24 801.461 166.936C826.436 172.194 847.029 179.643 863.241 189.282L829.065 262.235C797.956 244.708 763.999 235.945 727.194 235.945C705.286 235.945 688.856 239.012 677.902 245.147C666.948 251.281 661.471 259.168 661.471 268.807C661.471 279.761 667.386 287.428 679.216 291.81C691.047 296.191 709.887 300.354 735.738 304.297C764.656 309.117 788.316 314.375 806.719 320.071C825.121 325.329 841.114 335.187 854.697 349.646C868.279 364.105 875.071 384.26 875.071 410.111C875.071 432.019 868.498 451.517 855.354 468.605C842.209 485.693 822.931 499.056 797.518 508.696C772.543 517.897 742.749 522.497 708.134 522.497Z" fill="#F4F4F4"/>
</svg>
