<svg width="4000" height="1000" viewBox="0 0 4000 1000" fill="none" xmlns="http://www.w3.org/2000/svg">
<path d="M383.404 630C320.029 630 266.268 607.927 222.122 563.781C177.977 519.635 155.904 465.875 155.904 402.5C155.904 339.125 177.977 285.365 222.122 241.219C266.268 197.073 320.029 175 383.404 175C446.779 175 500.539 197.073 544.685 241.219C588.831 285.365 610.904 339.125 610.904 402.5C610.904 465.875 588.831 519.635 544.685 563.781C500.539 607.927 446.779 630 383.404 630ZM383.404 565C428.362 565 466.685 549.156 498.372 517.469C530.06 485.781 545.904 447.458 545.904 402.5C545.904 357.542 530.06 319.219 498.372 287.531C466.685 255.844 428.362 240 383.404 240C338.445 240 300.122 255.844 268.435 287.531C236.747 319.219 220.904 357.542 220.904 402.5C220.904 447.458 236.747 485.781 268.435 517.469C300.122 549.156 338.445 565 383.404 565ZM350.904 825V792.5C350.904 774.625 344.539 759.323 331.81 746.594C319.081 733.865 303.779 727.5 285.904 727.5H220.904V662.5H545.904V727.5H480.904C463.029 727.5 447.727 733.865 434.997 746.594C422.268 759.323 415.904 774.625 415.904 792.5V825H350.904Z" fill="#5CB85C"/>
<path d="M456.529 523.237C450.3 529.467 442.581 532.581 433.372 532.581C424.164 532.581 416.445 529.467 410.216 523.237C403.987 517.008 400.872 509.29 400.872 500.081C400.872 490.873 403.987 483.154 410.216 476.925C416.445 470.696 424.164 467.581 433.372 467.581C442.581 467.581 450.3 470.696 456.529 476.925C462.758 483.154 465.872 490.873 465.872 500.081C465.872 509.29 462.758 517.008 456.529 523.237Z" fill="#5CB85C"/>
<path d="M512.185 448.812C505.956 455.042 498.237 458.156 489.029 458.156C479.82 458.156 472.102 455.042 465.872 448.812C459.643 442.583 456.529 434.865 456.529 425.656C456.529 416.448 459.643 408.729 465.872 402.5C472.102 396.271 479.82 393.156 489.029 393.156C498.237 393.156 505.956 396.271 512.185 402.5C518.414 408.729 521.529 416.448 521.529 425.656C521.529 434.865 518.414 442.583 512.185 448.812Z" fill="#5CB85C"/>
<path d="M400.872 448.812C394.643 455.042 386.925 458.156 377.716 458.156C368.508 458.156 360.789 455.042 354.56 448.812C348.331 442.583 345.216 434.865 345.216 425.656C345.216 416.448 348.331 408.729 354.56 402.5C360.789 396.271 368.508 393.156 377.716 393.156C386.925 393.156 394.643 396.271 400.872 402.5C407.102 408.729 410.216 416.448 410.216 425.656C410.216 434.865 407.102 442.583 400.872 448.812Z" fill="#5CB85C"/>
<path d="M3677.16 697.497C3647.8 697.497 3619.1 693.992 3591.06 686.982C3563.02 679.533 3540.68 670.332 3524.03 659.378L3558.2 585.768C3573.97 595.846 3593.03 604.171 3615.38 610.743C3637.73 616.877 3659.63 619.944 3681.1 619.944C3724.48 619.944 3746.17 609.21 3746.17 587.74C3746.17 577.663 3740.25 570.433 3728.42 566.052C3716.59 561.67 3698.41 557.946 3673.87 554.879C3644.96 550.497 3621.08 545.458 3602.24 539.762C3583.4 534.066 3566.96 523.989 3552.94 509.53C3539.36 495.071 3532.57 474.478 3532.57 447.75C3532.57 425.404 3538.92 405.688 3551.63 388.6C3564.77 371.073 3583.61 357.491 3608.15 347.851C3633.13 338.212 3662.48 333.392 3696.22 333.392C3721.19 333.392 3745.95 336.24 3770.49 341.936C3795.46 347.194 3816.05 354.643 3832.27 364.282L3798.09 437.235C3766.98 419.708 3733.02 410.945 3696.22 410.945C3674.31 410.945 3657.88 414.012 3646.93 420.147C3635.97 426.281 3630.5 434.168 3630.5 443.807C3630.5 454.761 3636.41 462.428 3648.24 466.81C3660.07 471.191 3678.91 475.354 3704.76 479.297C3733.68 484.117 3757.34 489.375 3775.74 495.071C3794.15 500.329 3810.14 510.187 3823.72 524.646C3837.3 539.105 3844.1 559.26 3844.1 585.111C3844.1 607.019 3837.52 626.517 3824.38 643.605C3811.23 660.693 3791.96 674.056 3766.54 683.696C3741.57 692.897 3711.77 697.497 3677.16 697.497Z" fill="#5CB85C"/>
<path d="M3374.37 385.313C3386.64 368.225 3403.07 355.3 3423.66 346.537C3444.69 337.774 3468.79 333.392 3495.95 333.392V428.033C3484.56 427.157 3476.89 426.719 3472.95 426.719C3443.6 426.719 3420.59 435.044 3403.94 451.694C3387.29 467.905 3378.97 492.442 3378.97 525.303V692.24H3276.44V338.65H3374.37V385.313Z" fill="#5CB85C"/>
<path d="M3039.93 615.344C3058.33 615.344 3074.54 612.715 3088.56 607.457C3103.02 601.761 3116.39 592.998 3128.66 581.168L3183.21 640.319C3149.91 678.438 3101.27 697.497 3037.3 697.497C2997.43 697.497 2962.16 689.83 2931.49 674.494C2900.82 658.721 2877.16 637.032 2860.51 609.429C2843.86 581.825 2835.53 550.497 2835.53 515.445C2835.53 480.831 2843.64 449.722 2859.85 422.118C2876.5 394.077 2899.06 372.388 2927.54 357.053C2956.46 341.279 2988.88 333.392 3024.81 333.392C3058.55 333.392 3089.22 340.622 3116.83 355.081C3144.43 369.102 3166.34 389.695 3182.55 416.86C3199.2 443.588 3207.52 475.354 3207.52 512.159L2945.95 562.765C2953.39 580.292 2965.01 593.436 2980.78 602.199C2996.99 610.962 3016.71 615.344 3039.93 615.344ZM3024.81 410.945C2998.96 410.945 2977.93 419.27 2961.72 435.92C2945.51 452.57 2936.96 475.573 2936.09 504.929L3108.28 471.41C3103.46 453.008 3093.6 438.33 3078.71 427.376C3063.81 416.422 3045.84 410.945 3024.81 410.945Z" fill="#5CB85C"/>
<path d="M2766.39 338.65V633.089C2766.39 697.936 2749.53 746.132 2715.79 777.679C2682.05 809.226 2632.76 825 2567.91 825C2533.73 825 2501.31 820.838 2470.64 812.513C2439.97 804.188 2414.56 792.138 2394.4 776.365L2435.15 702.755C2450.05 715.024 2468.89 724.663 2491.67 731.673C2514.46 739.122 2537.24 742.846 2560.02 742.846C2595.51 742.846 2621.58 734.74 2638.23 718.529C2655.32 702.755 2663.87 678.657 2663.87 646.234V631.117C2637.14 660.474 2599.9 675.152 2552.14 675.152C2519.71 675.152 2489.92 668.141 2462.75 654.12C2436.03 639.661 2414.78 619.506 2399 593.655C2383.23 567.804 2375.34 538.01 2375.34 504.272C2375.34 470.534 2383.23 440.74 2399 414.889C2414.78 389.038 2436.03 369.102 2462.75 355.081C2489.92 340.622 2519.71 333.392 2552.14 333.392C2603.4 333.392 2642.4 350.261 2669.12 383.999V338.65H2766.39ZM2572.51 591.026C2599.68 591.026 2621.8 583.14 2638.89 567.366C2656.42 551.154 2665.18 530.123 2665.18 504.272C2665.18 478.421 2656.42 457.609 2638.89 441.835C2621.8 425.624 2599.68 417.518 2572.51 417.518C2545.35 417.518 2523 425.624 2505.47 441.835C2487.95 457.609 2479.18 478.421 2479.18 504.272C2479.18 530.123 2487.95 551.154 2505.47 567.366C2523 583.14 2545.35 591.026 2572.51 591.026Z" fill="#5CB85C"/>
<path d="M2158.28 333.392C2202.1 333.392 2237.37 346.537 2264.1 372.826C2291.26 399.115 2304.84 438.111 2304.84 489.813V692.24H2202.32V505.586C2202.32 477.545 2196.18 456.732 2183.91 443.15C2171.65 429.129 2153.9 422.118 2130.68 422.118C2104.83 422.118 2084.23 430.224 2068.9 446.436C2053.56 462.209 2045.9 485.87 2045.9 517.417V692.24H1943.37V338.65H2041.3V380.056C2054.88 365.158 2071.75 353.766 2091.9 345.88C2112.06 337.555 2134.18 333.392 2158.28 333.392Z" fill="#5CB85C"/>
<path d="M1745.69 338.65H1848.21V692.24H1745.69V338.65ZM1796.95 289.358C1778.11 289.358 1762.77 283.881 1750.94 272.927C1739.11 261.973 1733.2 248.391 1733.2 232.179C1733.2 215.967 1739.11 202.385 1750.94 191.431C1762.77 180.477 1778.11 175 1796.95 175C1815.79 175 1831.13 180.258 1842.96 190.774C1854.79 201.289 1860.7 214.434 1860.7 230.207C1860.7 247.295 1854.79 261.535 1842.96 272.927C1831.13 283.881 1815.79 289.358 1796.95 289.358Z" fill="#5CB85C"/>
<path d="M1653.54 338.65V533.847C1653.54 585.988 1639.3 626.298 1610.82 654.778C1582.34 683.258 1541.81 697.497 1489.23 697.497C1463.81 697.497 1441.25 693.554 1421.53 685.667C1402.25 677.781 1386.04 665.074 1372.9 647.548C1359.75 665.074 1343.54 677.781 1324.26 685.667C1304.98 693.554 1282.2 697.497 1255.91 697.497C1202.89 697.497 1162.37 683.258 1134.32 654.778C1106.28 626.298 1092.26 585.988 1092.26 533.847V338.65H1194.79V525.961C1194.79 555.317 1199.83 577.005 1209.91 591.026C1219.98 604.609 1235.76 611.4 1257.23 611.4C1279.13 611.4 1295.35 604.39 1305.86 590.369C1316.38 576.348 1321.63 554.879 1321.63 525.961V338.65H1424.16V525.961C1424.16 554.879 1429.42 576.348 1439.94 590.369C1450.45 604.39 1466.66 611.4 1488.57 611.4C1510.04 611.4 1525.81 604.609 1535.89 591.026C1545.97 577.005 1551.01 555.317 1551.01 525.961V338.65H1653.54Z" fill="#5CB85C"/>
<path d="M864.038 697.497C834.682 697.497 805.983 693.992 777.941 686.982C749.899 679.533 727.553 670.332 710.904 659.378L745.08 585.768C760.853 595.846 779.913 604.171 802.259 610.743C824.604 616.877 846.512 619.944 867.982 619.944C911.359 619.944 933.047 609.21 933.047 587.74C933.047 577.663 927.132 570.433 915.302 566.052C903.472 561.67 885.289 557.946 860.752 554.879C831.834 550.497 807.955 545.458 789.114 539.762C770.273 534.066 753.843 523.989 739.822 509.53C726.239 495.071 719.448 474.478 719.448 447.75C719.448 425.404 725.801 405.688 738.507 388.6C751.652 371.073 770.493 357.491 795.029 347.851C820.004 338.212 849.36 333.392 883.098 333.392C908.073 333.392 932.828 336.24 957.365 341.936C982.339 347.194 1002.93 354.643 1019.14 364.282L984.968 437.235C953.86 419.708 919.903 410.945 883.098 410.945C861.19 410.945 844.759 414.012 833.806 420.147C822.852 426.281 817.375 434.168 817.375 443.807C817.375 454.761 823.29 462.428 835.12 466.81C846.95 471.191 865.791 475.354 891.642 479.297C920.56 484.117 944.22 489.375 962.623 495.071C981.025 500.329 997.018 510.187 1010.6 524.646C1024.18 539.105 1030.97 559.26 1030.97 585.111C1030.97 607.019 1024.4 626.517 1011.26 643.605C998.113 660.693 978.834 674.056 953.421 683.696C928.447 692.897 898.652 697.497 864.038 697.497Z" fill="#5CB85C"/>
</svg>
