<svg width="1000" height="1000" viewBox="0 0 1000 1000" fill="none" xmlns="http://www.w3.org/2000/svg">
<rect width="1000" height="1000" fill="white"/>
<path d="M500 485C446.375 485 400.885 466.323 363.531 428.969C326.177 391.614 307.5 346.125 307.5 292.5C307.5 238.875 326.177 193.385 363.531 156.031C400.885 118.677 446.375 99.9998 500 99.9998C553.625 99.9998 599.115 118.677 636.469 156.031C673.823 193.385 692.5 238.875 692.5 292.5C692.5 346.125 673.823 391.614 636.469 428.969C599.115 466.323 553.625 485 500 485ZM500 430C538.042 430 570.469 416.594 597.281 389.781C624.094 362.969 637.5 330.541 637.5 292.5C637.5 254.458 624.094 222.031 597.281 195.219C570.469 168.406 538.042 155 500 155C461.958 155 429.531 168.406 402.719 195.219C375.906 222.031 362.5 254.458 362.5 292.5C362.5 330.541 375.906 362.969 402.719 389.781C429.531 416.594 461.958 430 500 430ZM472.5 650V622.5C472.5 607.375 467.115 594.427 456.344 583.656C445.573 572.885 432.625 567.5 417.5 567.5H362.5V512.5H637.5V567.5H582.5C567.375 567.5 554.427 572.885 543.656 583.656C532.885 594.427 527.5 607.375 527.5 622.5V650H472.5Z" fill="#5CB85C"/>
<path d="M561.875 394.662C556.604 399.933 550.073 402.569 542.281 402.569C534.49 402.569 527.958 399.933 522.688 394.662C517.417 389.391 514.781 382.86 514.781 375.069C514.781 367.277 517.417 360.746 522.688 355.475C527.958 350.204 534.49 347.569 542.281 347.569C550.073 347.569 556.604 350.204 561.875 355.475C567.146 360.746 569.781 367.277 569.781 375.069C569.781 382.86 567.146 389.391 561.875 394.662Z" fill="#5CB85C"/>
<path d="M608.969 331.687C603.698 336.958 597.167 339.594 589.375 339.594C581.583 339.594 575.052 336.958 569.781 331.687C564.51 326.416 561.875 319.885 561.875 312.094C561.875 304.302 564.51 297.771 569.781 292.5C575.052 287.229 581.583 284.594 589.375 284.594C597.167 284.594 603.698 287.229 608.969 292.5C614.24 297.771 616.875 304.302 616.875 312.094C616.875 319.885 614.24 326.416 608.969 331.687Z" fill="#5CB85C"/>
<path d="M514.781 331.687C509.51 336.958 502.979 339.594 495.188 339.594C487.396 339.594 480.865 336.958 475.594 331.687C470.323 326.416 467.688 319.885 467.688 312.094C467.688 304.302 470.323 297.771 475.594 292.5C480.865 287.229 487.396 284.594 495.188 284.594C502.979 284.594 509.51 287.229 514.781 292.5C520.052 297.771 522.688 304.302 522.688 312.094C522.688 319.885 520.052 326.416 514.781 331.687Z" fill="#5CB85C"/>
<path d="M822.999 870.577C816.224 870.577 809.601 869.768 803.13 868.15C796.659 866.431 791.502 864.308 787.66 861.78L795.547 844.793C799.187 847.118 803.585 849.04 808.742 850.556C813.899 851.972 818.954 852.68 823.909 852.68C833.919 852.68 838.924 850.202 838.924 845.248C838.924 842.922 837.559 841.254 834.829 840.243C832.099 839.232 827.903 838.372 822.24 837.664C815.567 836.653 810.056 835.491 805.708 834.176C801.361 832.862 797.569 830.536 794.333 827.199C791.199 823.863 789.632 819.11 789.632 812.943C789.632 807.786 791.098 803.236 794.03 799.292C797.063 795.248 801.411 792.113 807.073 789.889C812.837 787.664 819.611 786.552 827.397 786.552C833.16 786.552 838.873 787.209 844.536 788.524C850.299 789.737 855.051 791.456 858.792 793.681L850.906 810.516C843.727 806.471 835.89 804.449 827.397 804.449C822.341 804.449 818.55 805.157 816.022 806.572C813.494 807.988 812.23 809.808 812.23 812.033C812.23 814.56 813.595 816.33 816.325 817.341C819.055 818.352 823.403 819.313 829.369 820.223C836.042 821.335 841.502 822.548 845.749 823.863C849.996 825.076 853.686 827.351 856.821 830.688C859.955 834.024 861.522 838.676 861.522 844.641C861.522 849.697 860.006 854.196 856.972 858.14C853.939 862.083 849.49 865.167 843.626 867.392C837.862 869.515 830.987 870.577 822.999 870.577Z" fill="#5CB85C"/>
<path d="M753.123 798.534C755.954 794.591 759.746 791.608 764.498 789.586C769.352 787.563 774.913 786.552 781.182 786.552V808.392C778.553 808.19 776.783 808.089 775.873 808.089C769.099 808.089 763.79 810.01 759.948 813.853C756.106 817.594 754.185 823.256 754.185 830.839V869.363H730.525V787.766H753.123V798.534Z" fill="#5CB85C"/>
<path d="M675.945 851.618C680.192 851.618 683.933 851.011 687.169 849.798C690.505 848.483 693.589 846.461 696.421 843.731L709.009 857.381C701.324 866.178 690.101 870.577 675.339 870.577C666.137 870.577 657.998 868.807 650.92 865.268C643.842 861.628 638.382 856.623 634.54 850.253C630.698 843.883 628.776 836.653 628.776 828.564C628.776 820.577 630.647 813.398 634.388 807.027C638.23 800.556 643.438 795.551 650.01 792.012C656.683 788.372 664.166 786.552 672.457 786.552C680.243 786.552 687.32 788.221 693.69 791.557C700.061 794.793 705.116 799.545 708.857 805.814C712.7 811.982 714.621 819.313 714.621 827.806L654.257 839.485C655.976 843.529 658.655 846.562 662.295 848.585C666.036 850.607 670.586 851.618 675.945 851.618ZM672.457 804.449C666.491 804.449 661.638 806.37 657.897 810.213C654.156 814.055 652.184 819.363 651.982 826.138L691.719 818.403C690.607 814.156 688.331 810.769 684.894 808.241C681.456 805.713 677.31 804.449 672.457 804.449Z" fill="#5CB85C"/>
<path d="M612.822 787.766V855.713C612.822 870.678 608.929 881.8 601.143 889.08C593.357 896.36 581.982 900 567.018 900C559.131 900 551.649 899.04 544.571 897.119C537.493 895.197 531.628 892.417 526.977 888.777L536.381 871.79C539.819 874.621 544.166 876.845 549.424 878.463C554.682 880.182 559.94 881.042 565.198 881.042C573.388 881.042 579.404 879.171 583.246 875.43C587.19 871.79 589.161 866.229 589.161 858.746V855.258C582.993 862.033 574.399 865.42 563.378 865.42C555.895 865.42 549.02 863.802 542.751 860.566C536.583 857.23 531.679 852.579 528.039 846.613C524.399 840.647 522.579 833.772 522.579 825.986C522.579 818.2 524.399 811.325 528.039 805.359C531.679 799.393 536.583 794.793 542.751 791.557C549.02 788.221 555.895 786.552 563.378 786.552C575.208 786.552 584.207 790.445 590.375 798.231V787.766H612.822ZM568.079 846.006C574.348 846.006 579.455 844.186 583.398 840.546C587.442 836.805 589.465 831.952 589.465 825.986C589.465 820.02 587.442 815.218 583.398 811.578C579.455 807.836 574.348 805.966 568.079 805.966C561.81 805.966 556.654 807.836 552.609 811.578C548.565 815.218 546.542 820.02 546.542 825.986C546.542 831.952 548.565 836.805 552.609 840.546C556.654 844.186 561.81 846.006 568.079 846.006Z" fill="#5CB85C"/>
<path d="M472.488 786.552C482.599 786.552 490.739 789.586 496.907 795.652C503.176 801.719 506.31 810.718 506.31 822.649V869.363H482.65V826.289C482.65 819.818 481.234 815.015 478.403 811.881C475.572 808.645 471.477 807.027 466.118 807.027C460.152 807.027 455.4 808.898 451.861 812.639C448.322 816.279 446.553 821.739 446.553 829.019V869.363H422.892V787.766H445.491V797.321C448.626 793.883 452.518 791.254 457.17 789.434C461.821 787.513 466.927 786.552 472.488 786.552Z" fill="#5CB85C"/>
<path d="M377.274 787.765H400.934V869.363H377.274V787.765ZM389.104 776.39C384.756 776.39 381.217 775.126 378.487 772.598C375.757 770.071 374.392 766.936 374.392 763.195C374.392 759.454 375.757 756.319 378.487 753.791C381.217 751.264 384.756 750 389.104 750C393.452 750 396.991 751.213 399.721 753.64C402.451 756.066 403.816 759.1 403.816 762.74C403.816 766.683 402.451 769.969 399.721 772.598C396.991 775.126 393.452 776.39 389.104 776.39Z" fill="#5CB85C"/>
<path d="M356.008 787.765V832.81C356.008 844.843 352.722 854.145 346.15 860.717C339.577 867.29 330.225 870.576 318.091 870.576C312.227 870.576 307.019 869.666 302.469 867.846C298.02 866.026 294.279 863.094 291.246 859.049C288.212 863.094 284.471 866.026 280.022 867.846C275.573 869.666 270.315 870.576 264.249 870.576C252.014 870.576 242.661 867.29 236.19 860.717C229.719 854.145 226.483 844.843 226.483 832.81V787.765H250.144V830.99C250.144 837.765 251.306 842.77 253.632 846.006C255.958 849.14 259.598 850.707 264.552 850.707C269.608 850.707 273.349 849.089 275.776 845.854C278.202 842.618 279.416 837.664 279.416 830.99V787.765H303.076V830.99C303.076 837.664 304.289 842.618 306.716 845.854C309.143 849.089 312.884 850.707 317.939 850.707C322.894 850.707 326.534 849.14 328.859 846.006C331.185 842.77 332.348 837.765 332.348 830.99V787.765H356.008Z" fill="#5CB85C"/>
<path d="M173.816 870.577C167.042 870.577 160.419 869.768 153.948 868.15C147.477 866.431 142.32 864.308 138.478 861.78L146.364 844.793C150.004 847.118 154.403 849.04 159.56 850.556C164.716 851.972 169.772 852.68 174.726 852.68C184.737 852.68 189.742 850.202 189.742 845.248C189.742 842.922 188.377 841.254 185.647 840.243C182.916 839.232 178.72 838.372 173.058 837.664C166.385 836.653 160.874 835.491 156.526 834.176C152.178 832.862 148.387 830.536 145.151 827.199C142.017 823.863 140.449 819.11 140.449 812.943C140.449 807.786 141.915 803.236 144.848 799.292C147.881 795.248 152.229 792.113 157.891 789.889C163.655 787.664 170.429 786.552 178.215 786.552C183.978 786.552 189.691 787.209 195.353 788.524C201.117 789.737 205.869 791.456 209.61 793.681L201.723 810.516C194.544 806.471 186.708 804.449 178.215 804.449C173.159 804.449 169.367 805.157 166.84 806.572C164.312 807.988 163.048 809.808 163.048 812.033C163.048 814.56 164.413 816.33 167.143 817.341C169.873 818.352 174.221 819.313 180.186 820.223C186.86 821.335 192.32 822.548 196.567 823.863C200.813 825.076 204.504 827.351 207.638 830.688C210.773 834.024 212.34 838.676 212.34 844.641C212.34 849.697 210.823 854.196 207.79 858.14C204.757 862.083 200.308 865.167 194.443 867.392C188.68 869.515 181.804 870.577 173.816 870.577Z" fill="#5CB85C"/>
</svg>
