<svg width="1000" height="1000" viewBox="0 0 1000 1000" fill="none" xmlns="http://www.w3.org/2000/svg">
<rect width="1000" height="1000" rx="500" fill="#076652"/>
<path d="M500 650C426.875 650 364.844 624.531 313.906 573.594C262.969 522.656 237.5 460.625 237.5 387.5C237.5 314.375 262.969 252.344 313.906 201.406C364.844 150.469 426.875 125 500 125C573.125 125 635.156 150.469 686.094 201.406C737.031 252.344 762.5 314.375 762.5 387.5C762.5 460.625 737.031 522.656 686.094 573.594C635.156 624.531 573.125 650 500 650ZM500 575C551.875 575 596.094 556.719 632.656 520.156C669.219 483.594 687.5 439.375 687.5 387.5C687.5 335.625 669.219 291.406 632.656 254.844C596.094 218.281 551.875 200 500 200C448.125 200 403.906 218.281 367.344 254.844C330.781 291.406 312.5 335.625 312.5 387.5C312.5 439.375 330.781 483.594 367.344 520.156C403.906 556.719 448.125 575 500 575ZM462.5 875V837.5C462.5 816.875 455.156 799.219 440.469 784.531C425.781 769.844 408.125 762.5 387.5 762.5H312.5V687.5H687.5V762.5H612.5C591.875 762.5 574.219 769.844 559.531 784.531C544.844 799.219 537.5 816.875 537.5 837.5V875H462.5Z" fill="white"/>
<path d="M584.375 526.812C577.188 534 568.281 537.594 557.656 537.594C547.031 537.594 538.125 534 530.938 526.812C523.75 519.625 520.156 510.719 520.156 500.094C520.156 489.469 523.75 480.562 530.938 473.375C538.125 466.188 547.031 462.594 557.656 462.594C568.281 462.594 577.188 466.188 584.375 473.375C591.562 480.562 595.156 489.469 595.156 500.094C595.156 510.719 591.562 519.625 584.375 526.812Z" fill="white"/>
<path d="M648.594 440.938C641.406 448.125 632.5 451.719 621.875 451.719C611.25 451.719 602.344 448.125 595.156 440.938C587.969 433.75 584.375 424.844 584.375 414.219C584.375 403.594 587.969 394.688 595.156 387.5C602.344 380.312 611.25 376.719 621.875 376.719C632.5 376.719 641.406 380.312 648.594 387.5C655.781 394.688 659.375 403.594 659.375 414.219C659.375 424.844 655.781 433.75 648.594 440.938Z" fill="white"/>
<path d="M520.156 440.938C512.969 448.125 504.062 451.719 493.438 451.719C482.812 451.719 473.906 448.125 466.719 440.938C459.531 433.75 455.938 424.844 455.938 414.219C455.938 403.594 459.531 394.688 466.719 387.5C473.906 380.312 482.812 376.719 493.438 376.719C504.062 376.719 512.969 380.312 520.156 387.5C527.344 394.688 530.938 403.594 530.938 414.219C530.938 424.844 527.344 433.75 520.156 440.938Z" fill="white"/>
</svg>
