<svg width="700" height="1000" viewBox="0 0 700 1000" fill="none" xmlns="http://www.w3.org/2000/svg">
<path d="M350 700C252.5 700 169.792 666.042 101.875 598.125C33.9583 530.208 0 447.5 0 350C0 252.5 33.9583 169.792 101.875 101.875C169.792 33.9583 252.5 0 350 0C447.5 0 530.208 33.9583 598.125 101.875C666.042 169.792 700 252.5 700 350C700 447.5 666.042 530.208 598.125 598.125C530.208 666.042 447.5 700 350 700ZM350 600C419.167 600 478.125 575.625 526.875 526.875C575.625 478.125 600 419.167 600 350C600 280.833 575.625 221.875 526.875 173.125C478.125 124.375 419.167 100 350 100C280.833 100 221.875 124.375 173.125 173.125C124.375 221.875 100 280.833 100 350C100 419.167 124.375 478.125 173.125 526.875C221.875 575.625 280.833 600 350 600ZM300 1000V950C300 922.5 290.208 898.958 270.625 879.375C251.042 859.792 227.5 850 200 850H100V750H600V850H500C472.5 850 448.958 859.792 429.375 879.375C409.792 898.958 400 922.5 400 950V1000H300Z" fill="#07663B"/>
<path d="M462.5 535.75C452.917 545.333 441.042 550.125 426.875 550.125C412.708 550.125 400.833 545.333 391.25 535.75C381.667 526.167 376.875 514.292 376.875 500.125C376.875 485.958 381.667 474.083 391.25 464.5C400.833 454.917 412.708 450.125 426.875 450.125C441.042 450.125 452.917 454.917 462.5 464.5C472.083 474.083 476.875 485.958 476.875 500.125C476.875 514.292 472.083 526.167 462.5 535.75Z" fill="#07663B"/>
<path d="M548.125 421.25C538.542 430.833 526.667 435.625 512.5 435.625C498.333 435.625 486.458 430.833 476.875 421.25C467.292 411.667 462.5 399.792 462.5 385.625C462.5 371.458 467.292 359.583 476.875 350C486.458 340.417 498.333 335.625 512.5 335.625C526.667 335.625 538.542 340.417 548.125 350C557.708 359.583 562.5 371.458 562.5 385.625C562.5 399.792 557.708 411.667 548.125 421.25Z" fill="#07663B"/>
<path d="M376.875 421.25C367.292 430.833 355.417 435.625 341.25 435.625C327.083 435.625 315.208 430.833 305.625 421.25C296.042 411.667 291.25 399.792 291.25 385.625C291.25 371.458 296.042 359.583 305.625 350C315.208 340.417 327.083 335.625 341.25 335.625C355.417 335.625 367.292 340.417 376.875 350C386.458 359.583 391.25 371.458 391.25 385.625C391.25 399.792 386.458 411.667 376.875 421.25Z" fill="#07663B"/>
</svg>
