<svg width="1920" height="821" viewBox="0 0 1920 821" fill="none" xmlns="http://www.w3.org/2000/svg">
<path d="M-94 100L2086 100V100C2086 302.246 1934.73 472.529 1733.9 496.366L1509.83 522.961C1426.39 532.864 1345.39 557.606 1270.66 596.018V596.018C1037.98 715.614 782.592 784.53 521.335 798.222L499.5 799.366L-24 820.5L-94 100Z" fill="#479147"/>
<path d="M0 0L1986 0V0C1986 201.483 1835.26 371.101 1635.17 394.762L1407.19 421.722C1325.49 431.383 1246.17 455.53 1172.94 493.029V493.029C938.885 612.892 681.607 680.546 418.862 691.322L0 708.5L0 0Z" fill="#5CB85C"/>
<path d="M1512.58 505.853C1506.89 511.013 1505.21 518.064 1508.85 521.584C1512.48 525.114 1520.04 523.784 1525.74 518.614C1528.05 516.584 1529.78 514.043 1530.8 511.203L1554.64 489.022L1542.91 478.361L1520.67 501.353C1517.61 502.213 1514.85 503.753 1512.6 505.843L1512.58 505.853Z" fill="#F3A3A6"/>
<path d="M1533.68 509.543L1594.73 465.72L1594.79 465.62L1630.46 402.486C1635.93 392.816 1632.9 380.785 1623.42 374.505C1617.62 370.655 1610.41 369.584 1603.64 371.555C1596.86 373.525 1591.53 378.255 1589.01 384.525L1565.86 441.979L1521.87 495.442L1533.68 509.523V509.543Z" fill="#CCCCCC"/>
<path d="M1558.17 559.506C1555.52 561.706 1551.52 561.496 1549.14 559.036L1377.72 380.875C1377.72 380.875 1360.22 368.744 1384.48 356.714C1384.48 356.714 1389.61 356.084 1380.97 377.625L1558.54 550.636C1561.11 553.146 1560.96 557.196 1558.17 559.506Z" fill="#2F2E43"/>
<path d="M1624.95 378.345L1597.52 386.896V349.453H1622.41L1624.95 378.345Z" fill="#F3A3A6"/>
<path d="M1600.91 359.814C1585.82 359.814 1573.58 348.208 1573.58 333.892C1573.58 319.576 1585.82 307.971 1600.91 307.971C1616.01 307.971 1628.25 319.576 1628.25 333.892C1628.25 348.208 1616.01 359.814 1600.91 359.814Z" fill="#F3A3A6"/>
<path d="M1607.87 335.922L1604.11 340.263L1597.3 328.952C1597.3 328.952 1588.6 329.382 1588.6 323.252C1588.6 317.131 1580.61 316.961 1580.61 316.961C1580.61 316.961 1569.31 298.25 1592.72 303.18C1592.72 303.18 1608.95 292.63 1617.03 301.65C1617.03 301.65 1641.78 313.471 1634.69 334.052L1622.92 355.264L1620.26 350.463C1620.26 350.463 1621.87 330.302 1607.87 335.922Z" fill="#2F2E43"/>
<path d="M1632.48 762.819H1610.4V733.107H1632.48V762.819Z" fill="#F3A3A6"/>
<path d="M1612.84 779.84C1616.62 780.16 1635.52 781.58 1636.47 777.47C1637.33 773.699 1636.05 769.759 1635.87 769.219C1634.06 752.078 1633.39 751.888 1632.97 751.778C1632.33 751.598 1630.45 752.448 1627.41 754.308L1627.22 754.428L1627.17 754.638C1627.12 754.908 1625.77 761.199 1619.37 760.229C1614.98 759.569 1613.56 758.649 1613.11 758.199C1613.47 758.039 1613.94 757.759 1614.27 757.278C1614.74 756.578 1614.82 755.678 1614.51 754.598C1613.69 751.748 1611.22 747.538 1611.11 747.368L1610.83 746.888L1585.73 762.949L1570.23 767.149C1569.05 767.469 1568.12 768.259 1567.64 769.319C1566.99 770.799 1567.39 772.519 1568.65 773.599C1571.47 776 1577.06 780.11 1582.93 780.62C1584.49 780.76 1586.56 780.81 1588.88 780.81C1598.57 780.81 1612.73 779.86 1612.83 779.84H1612.84Z" fill="#2F2E43"/>
<path d="M1699.25 711.405L1682.24 724.754L1662.26 701.86L1679.28 688.512L1699.25 711.405Z" fill="#F3A3A6"/>
<path d="M1695.54 736.407C1698.68 734.377 1714.18 724.036 1712.15 720.306C1710.29 716.876 1706.65 714.606 1706.15 714.306C1693.24 702.205 1692.58 702.465 1692.2 702.615C1691.58 702.865 1690.7 704.655 1689.61 707.925L1689.54 708.125L1689.65 708.315C1689.79 708.555 1692.97 714.216 1687.4 717.346C1683.57 719.486 1681.87 719.646 1681.21 719.566C1681.39 719.216 1681.56 718.726 1681.49 718.146C1681.38 717.326 1680.84 716.576 1679.87 715.936C1677.32 714.246 1672.6 712.486 1672.4 712.416L1671.86 712.216L1663.32 739.757L1654.19 752.368C1653.51 753.318 1653.31 754.498 1653.67 755.608C1654.16 757.148 1655.63 758.229 1657.33 758.299C1661.11 758.449 1668.18 758.229 1673.04 755.078C1674.33 754.238 1675.96 753.038 1677.74 751.628C1685.21 745.768 1695.47 736.477 1695.54 736.407Z" fill="#2F2E43"/>
<path d="M1573.87 503.983H1649.63L1632.8 741.428H1607.55L1573.88 503.983H1573.87Z" fill="#2F2E43"/>
<path d="M1589.3 517.064L1573.87 503.983L1581.59 634.571L1667.86 712.386L1689.38 695.535L1639.11 633.681L1589.3 517.064Z" fill="#2F2E43"/>
<path d="M1589.3 364.304L1626.71 358.544L1638.33 377.805C1653.1 402.286 1659.12 430.648 1655.5 458.65L1649.63 503.983H1573.87L1589.3 364.304Z" fill="#CCCCCC"/>
<path d="M1512.89 515.213C1506.6 519.724 1504.08 526.534 1507.25 530.434C1510.43 534.335 1518.11 533.845 1524.39 529.334C1526.93 527.564 1528.97 525.234 1530.32 522.524L1556.68 503.103L1546.33 491.222L1521.43 511.633C1518.29 512.153 1515.35 513.383 1512.87 515.213H1512.89Z" fill="#F3A3A6"/>
<path d="M1533.4 521.194L1599.37 484.352L1599.44 484.262L1642.56 425.458C1649.16 416.447 1647.62 404.167 1638.96 396.896C1633.67 392.436 1626.64 390.586 1619.67 391.806C1612.71 393.026 1606.83 397.136 1603.55 403.097L1573.57 457.63L1523.37 505.923L1533.39 521.204L1533.4 521.194Z" fill="#CCCCCC"/>
</svg>
