<svg width="567" height="484" viewBox="0 0 567 484" fill="none" xmlns="http://www.w3.org/2000/svg">
<path d="M309.581 207.853C303.886 213.013 302.209 220.064 305.847 223.584C309.475 227.114 317.037 225.784 322.742 220.614C325.052 218.584 326.781 216.043 327.804 213.203L351.638 191.022L339.911 180.361L317.669 203.353C314.611 204.213 311.848 205.753 309.602 207.843L309.581 207.853Z" fill="#F3A3A6"/>
<path d="M330.683 211.543L391.734 167.72L391.787 167.62L427.465 104.486C432.927 94.8159 429.901 82.7851 420.42 76.5047C414.619 72.6545 407.406 71.5844 400.635 73.5546C393.865 75.5247 388.528 80.255 386.008 86.5254L362.859 143.979L318.872 197.442L330.683 211.523V211.543Z" fill="#CCCCCC"/>
<path d="M355.171 261.506C352.524 263.706 348.517 263.496 346.144 261.036L174.717 82.8752C174.717 82.8752 157.221 70.7444 181.477 58.7137C181.477 58.7137 186.613 58.0836 177.965 79.625L355.54 252.636C358.114 255.146 357.955 259.196 355.171 261.506Z" fill="#2F2E43"/>
<path d="M421.949 80.345L394.519 88.8955V51.4532H419.407L421.949 80.345Z" fill="#F3A3A6"/>
<path d="M397.915 61.8138C382.818 61.8138 370.579 50.2083 370.579 35.8922C370.579 21.5761 382.818 9.97061 397.915 9.97061C413.011 9.97061 425.25 21.5761 425.25 35.8922C425.25 50.2083 413.011 61.8138 397.915 61.8138Z" fill="#F3A3A6"/>
<path d="M404.875 37.9224L401.11 42.2626L394.297 30.9519C394.297 30.9519 385.597 31.3819 385.597 25.2516C385.597 19.1312 377.613 18.9612 377.613 18.9612C377.613 18.9612 366.308 0.25002 389.72 5.18033C389.72 5.18033 405.951 -5.37033 414.029 3.65023C414.029 3.65023 438.781 15.471 431.694 36.0522L419.924 57.2635L417.256 52.4633C417.256 52.4633 418.87 32.302 404.875 37.9224Z" fill="#2F2E43"/>
<path d="M429.479 464.819H407.396V435.107H429.479V464.819Z" fill="#F3A3A6"/>
<path d="M409.842 481.84C413.618 482.16 432.516 483.58 433.465 479.47C434.33 475.699 433.054 471.759 432.875 471.219C431.061 454.078 430.386 453.888 429.975 453.778C429.331 453.598 427.454 454.448 424.406 456.308L424.216 456.428L424.174 456.638C424.122 456.908 422.772 463.199 416.37 462.229C411.983 461.569 410.559 460.649 410.106 460.199C410.475 460.039 410.939 459.759 411.266 459.278C411.74 458.578 411.825 457.678 411.508 456.598C410.686 453.748 408.218 449.538 408.113 449.368L407.828 448.888L382.728 464.949L367.225 469.149C366.055 469.469 365.116 470.259 364.642 471.319C363.988 472.799 364.389 474.519 365.654 475.599C368.47 478 374.059 482.11 379.933 482.62C381.494 482.76 383.561 482.81 385.881 482.81C395.573 482.81 409.726 481.86 409.832 481.84H409.842Z" fill="#2F2E43"/>
<path d="M496.252 413.405L479.236 426.754L459.264 403.86L476.28 390.512L496.252 413.405Z" fill="#F3A3A6"/>
<path d="M492.545 438.407C495.677 436.377 511.18 426.036 509.155 422.306C507.288 418.876 503.65 416.606 503.154 416.306C490.235 404.205 489.581 404.465 489.202 404.615C488.579 404.865 487.704 406.655 486.607 409.925L486.544 410.125L486.649 410.315C486.786 410.555 489.971 416.216 484.403 419.346C480.575 421.486 478.866 421.646 478.213 421.566C478.392 421.216 478.561 420.726 478.487 420.146C478.381 419.326 477.843 418.576 476.873 417.936C474.321 416.246 469.596 414.486 469.396 414.416L468.858 414.216L460.316 441.757L451.193 454.368C450.508 455.318 450.308 456.498 450.666 457.608C451.162 459.148 452.628 460.229 454.326 460.299C458.112 460.449 465.178 460.229 470.039 457.078C471.326 456.238 472.961 455.038 474.743 453.628C482.209 447.768 492.471 438.477 492.545 438.407Z" fill="#2F2E43"/>
<path d="M370.874 205.983H446.627L429.795 443.428H404.548L370.885 205.983H370.874Z" fill="#2F2E43"/>
<path d="M386.303 219.064L370.874 205.983L378.594 336.571L464.861 414.386L486.375 397.535L436.112 335.681L386.303 219.064Z" fill="#2F2E43"/>
<path d="M386.303 66.3041L423.71 60.5438L435.332 79.805C450.097 104.286 456.118 132.648 452.501 160.65L446.627 205.983H370.874L386.303 66.3041Z" fill="#CCCCCC"/>
<path d="M309.886 217.213C303.601 221.724 301.08 228.534 304.255 232.434C307.429 236.335 315.107 235.845 321.392 231.334C323.934 229.564 325.969 227.234 327.319 224.524L353.684 205.103L343.328 193.222L318.429 213.633C315.286 214.153 312.354 215.383 309.865 217.213H309.886Z" fill="#F3A3A6"/>
<path d="M330.398 223.194L396.375 186.352L396.438 186.262L439.561 127.458C446.163 118.447 444.623 106.167 435.965 98.8961C430.671 94.4358 423.636 92.5857 416.665 93.8058C409.705 95.0259 403.831 99.1361 400.551 105.097L370.569 159.63L320.369 207.923L330.388 223.204L330.398 223.194Z" fill="#CCCCCC"/>
</svg>
