<svg width="731" height="631" viewBox="0 0 731 631" fill="none" xmlns="http://www.w3.org/2000/svg">
<g clip-path="url(#clip0_5_233)">
<path d="M16.0466 577.792L14.4642 577.435C32.1084 498.97 76.4495 427.716 139.32 376.799C186.851 338.364 243.383 312.659 303.592 302.103C363.801 291.548 425.706 296.489 483.477 316.462C541.249 336.436 592.987 370.784 633.82 416.272C674.653 461.76 703.237 516.893 716.881 576.478L715.3 576.837C677.951 412.844 534.224 298.31 365.781 298.31C199.547 298.31 52.4619 415.849 16.0466 577.792Z" fill="#3F3D56"/>
<path d="M365.221 631C566.926 631 730.441 610.763 730.441 585.799C730.441 560.836 566.926 540.599 365.221 540.599C163.515 540.599 0 560.836 0 585.799C0 610.763 163.515 631 365.221 631Z" fill="#3F3D56"/>
<path d="M451.102 544.031C451.102 544.81 451.046 545.588 450.934 546.358C450.693 548.05 450.181 549.692 449.419 551.221C448.599 552.868 447.504 554.364 446.182 555.644C446.032 555.791 445.876 555.934 445.718 556.075C443.136 558.4 439.869 559.824 436.408 560.133C435.923 560.177 435.429 560.201 434.932 560.201C431.015 560.204 427.231 558.784 424.283 556.206C421.334 553.627 419.422 550.066 418.902 546.184C418.808 545.471 418.761 544.751 418.762 544.031C418.761 543.12 418.837 542.211 418.989 541.312C419.277 539.611 419.838 537.968 420.651 536.446C421.022 535.741 421.447 535.066 421.924 534.428C423.425 532.39 425.385 530.734 427.645 529.593C429.904 528.453 432.4 527.859 434.932 527.861C435.483 527.861 436.034 527.888 436.582 527.945C438.261 528.114 439.904 528.547 441.448 529.23C442.876 529.859 444.205 530.693 445.394 531.703C445.709 531.97 446.011 532.248 446.305 532.539C447.508 533.726 448.517 535.097 449.293 536.599C450.091 538.129 450.634 539.779 450.901 541.483C451.035 542.326 451.102 543.178 451.102 544.031Z" fill="#F2F2F2"/>
<path d="M441.409 536.557L441.382 541.431L446.256 541.457L446.282 536.583L441.409 536.557Z" fill="#CCCCCC"/>
<path d="M451.102 544.031C451.102 544.81 451.046 545.587 450.934 546.358L446.23 546.331L446.257 541.456L450.901 541.483C451.035 542.326 451.102 543.178 451.102 544.031Z" fill="#CCCCCC"/>
<path d="M449.419 551.221C448.599 552.868 447.504 554.364 446.182 555.644L446.203 551.206L449.419 551.221Z" fill="#CCCCCC"/>
<path d="M426.823 530.038L426.814 531.604L424.601 531.592C425.297 531.013 426.04 530.493 426.823 530.038Z" fill="#CCCCCC"/>
<path d="M436.582 527.945L436.561 531.658L431.686 531.631L431.704 528.185C432.766 527.969 433.848 527.861 434.932 527.861C435.483 527.861 436.033 527.888 436.582 527.945Z" fill="#CCCCCC"/>
<path d="M445.394 531.703L441.436 531.682L441.448 529.229C442.876 529.859 444.205 530.692 445.394 531.703Z" fill="#CCCCCC"/>
<path d="M421.924 534.428L421.912 536.452L420.651 536.446C421.022 535.741 421.447 535.066 421.924 534.428Z" fill="#CCCCCC"/>
<path d="M426.813 531.604L426.787 536.478L431.661 536.504L431.687 531.63L426.813 531.604Z" fill="#CCCCCC"/>
<path d="M436.561 531.657L436.535 536.531L441.409 536.557L441.435 531.683L436.561 531.657Z" fill="#CCCCCC"/>
<path d="M449.293 536.599L446.284 536.584L446.305 532.539C447.508 533.726 448.517 535.097 449.293 536.599Z" fill="#CCCCCC"/>
<path d="M421.913 536.452L421.887 541.326L426.761 541.352L426.787 536.478L421.913 536.452Z" fill="#CCCCCC"/>
<path d="M431.665 536.504L431.639 541.377L436.513 541.404L436.539 536.53L431.665 536.504Z" fill="#CCCCCC"/>
<path d="M426.761 541.352L426.734 546.226L431.608 546.252L431.634 541.378L426.761 541.352Z" fill="#CCCCCC"/>
<path d="M436.513 541.404L436.486 546.278L441.36 546.304L441.387 541.43L436.513 541.404Z" fill="#CCCCCC"/>
<path d="M421.888 541.327L421.861 546.199L418.902 546.184C418.808 545.471 418.761 544.751 418.762 544.031C418.761 543.12 418.837 542.211 418.989 541.312L421.888 541.327Z" fill="#CCCCCC"/>
<path d="M421.861 546.2L421.834 551.074L426.708 551.1L426.734 546.226L421.861 546.2Z" fill="#CCCCCC"/>
<path d="M431.608 546.252L431.582 551.126L436.456 551.152L436.482 546.278L431.608 546.252Z" fill="#CCCCCC"/>
<path d="M441.356 546.305L441.33 551.179L446.204 551.205L446.23 546.331L441.356 546.305Z" fill="#CCCCCC"/>
<path d="M421.834 551.074L421.822 553.496C421.266 552.731 420.779 551.917 420.367 551.065L421.834 551.074Z" fill="#CCCCCC"/>
<path d="M426.708 551.1L426.682 555.974L431.556 556L431.582 551.126L426.708 551.1Z" fill="#CCCCCC"/>
<path d="M436.46 551.151L436.434 556.025L441.308 556.052L441.334 551.178L436.46 551.151Z" fill="#CCCCCC"/>
<path d="M426.682 555.973L426.67 557.934C425.72 557.368 424.831 556.706 424.017 555.958L426.682 555.973Z" fill="#CCCCCC"/>
<path d="M436.429 556.027L436.408 560.132C435.923 560.177 435.429 560.201 434.932 560.201C433.79 560.203 432.652 560.082 431.536 559.842L431.557 556L436.429 556.027Z" fill="#CCCCCC"/>
<path d="M445.718 556.075C444.406 557.253 442.91 558.209 441.289 558.905L441.304 556.051L445.718 556.075Z" fill="#CCCCCC"/>
<path d="M596.908 334.137L616.393 409.914C616.393 409.914 617.115 463.318 621.445 484.246C625.775 505.175 640.209 555.693 640.209 555.693L657.529 558.579L653.92 487.855C653.92 487.855 653.92 445.276 650.312 435.894C646.704 426.512 639.487 330.529 639.487 330.529L596.908 334.137Z" fill="#A0616A"/>
<path opacity="0.1" d="M596.908 334.137L616.393 409.914C616.393 409.914 617.115 463.318 621.445 484.246C625.775 505.175 640.209 555.693 640.209 555.693L657.529 558.579L653.92 487.855C653.92 487.855 653.92 445.276 650.312 435.894C646.704 426.512 639.487 330.529 639.487 330.529L596.908 334.137Z" fill="black"/>
<path d="M650.93 16.5293C626.875 16.5293 607.374 38.1711 607.374 64.8676V98.7858H617.805L623.845 86.2188L622.335 98.7858H689.386L694.876 87.3613L693.504 98.7858H701.053V72.1539C701.053 41.4333 678.612 16.5293 650.93 16.5293Z" fill="#2F2E41"/>
<path d="M578.505 322.229C578.505 322.229 569.845 359.035 581.392 362.643C592.939 366.252 590.052 322.229 590.052 322.229H578.505Z" fill="#A0616A"/>
<path d="M592.939 135.315L587.165 141.81L588.609 266.66L575.619 325.838L604.485 328.725L618.919 209.647L614.589 149.026L592.939 135.315Z" fill="#3F3D56"/>
<path opacity="0.1" d="M592.939 135.315L587.165 141.81L588.609 266.66L575.619 325.838L604.485 328.725L618.919 209.647L614.589 149.026L592.939 135.315Z" fill="black"/>
<path d="M647.077 94.0464C664.202 94.0464 678.085 80.1637 678.085 63.0385C678.085 45.9132 664.202 32.0305 647.077 32.0305C629.951 32.0305 616.069 45.9132 616.069 63.0385C616.069 80.1637 629.951 94.0464 647.077 94.0464Z" fill="#A0616A"/>
<path d="M629.299 81.6431C629.299 81.6431 638.395 128.775 634.26 133.736C630.126 138.698 678.085 124.641 678.085 124.641C678.085 124.641 662.374 92.3925 670.643 74.2012L629.299 81.6431Z" fill="#A0616A"/>
<path d="M707.686 288.311C707.686 288.311 716.346 325.116 704.799 328.725C693.252 332.333 696.139 288.311 696.139 288.311H707.686Z" fill="#A0616A"/>
<path d="M640.93 325.477C640.93 325.477 628.662 399.088 629.383 409.913C630.105 420.739 629.383 422.182 629.383 422.182C629.383 422.182 617.115 453.936 613.506 471.978C609.898 490.02 601.96 513.114 601.96 513.114C601.96 513.114 592.578 534.042 600.516 534.042C608.455 534.042 619.28 531.156 619.28 531.156C619.251 522.82 622.05 514.72 627.218 508.18C635.878 497.237 661.859 445.997 661.859 439.502C661.859 433.007 666.189 414.244 666.189 414.244L682.788 334.137L640.93 325.477Z" fill="#A0616A"/>
<path d="M590.413 276.403C590.413 276.403 578.144 338.467 588.969 339.911C599.795 341.354 614.95 330.529 634.435 342.797C653.92 355.066 686.396 352.179 686.396 352.179C686.396 352.179 708.768 295.167 688.561 281.455C668.354 267.743 590.413 276.403 590.413 276.403Z" fill="#2F2E41"/>
<path d="M604.125 525.382C607.301 524 610.792 523.501 614.228 523.939C617.517 524.426 620.868 523.653 623.61 521.774C623.61 521.774 617.837 542.703 618.558 550.641C619.28 558.58 616.393 592.499 601.238 588.89C586.083 585.282 581.753 574.456 587.526 555.693C593.299 536.929 591.856 515.279 591.856 515.279C591.856 515.279 602.389 504.4 604.339 505.87C606.29 507.34 604.125 525.382 604.125 525.382Z" fill="#2F2E41"/>
<path d="M652.477 552.084C652.477 552.084 645.26 536.207 636.6 550.641C627.94 565.075 627.218 568.683 627.218 568.683C627.218 568.683 602.681 591.055 620.002 593.22C637.322 595.385 651.034 592.498 651.034 588.89C651.034 585.282 659.694 586.003 660.416 583.117C661.137 580.23 658.972 553.528 658.972 553.528L652.477 552.084Z" fill="#2F2E41"/>
<path d="M668.715 105.726C668.715 105.726 638.404 111.499 634.796 110.778C633.983 110.634 633.161 110.547 632.336 110.517C625.279 110.196 618.281 111.931 612.192 115.512C602.142 121.35 587.165 131.739 587.165 141.81C587.165 156.965 606.65 182.946 606.65 182.946C606.65 182.946 588.608 245.01 590.052 250.783C591.495 256.557 579.227 276.042 587.165 282.537C595.104 289.032 670.88 282.537 684.592 289.032C698.304 295.527 691.809 202.431 691.809 202.431C691.809 202.431 728.614 117.994 709.85 110.056C703.779 107.487 698.539 105.523 694.227 104.041C690.076 102.612 685.682 102.025 681.301 102.314C676.921 102.604 672.642 103.764 668.715 105.726Z" fill="#3F3D56"/>
<path d="M696.86 110.778L713.42 113.514C713.42 113.514 720.676 120.881 720.676 124.489C720.676 128.098 719.232 283.98 717.067 289.032C714.902 294.084 691.087 291.919 691.087 291.919L695.417 203.152L696.86 110.778Z" fill="#3F3D56"/>
<path d="M663.313 29.8451C658.94 24.2139 652.489 20.6472 645.289 20.6472H644.434C627.946 20.6472 614.58 35.5668 614.58 53.971L620.104 53.9711L620.997 47.1799L622.305 53.9711H655.071L657.816 48.2256L657.13 53.9711H663.576C666.584 68.9094 662.262 83.8477 650.61 98.7859H661.591L667.081 87.295L665.709 98.7859H686.641L690.758 72.3566C690.758 52.5635 679.258 35.7793 663.313 29.8451Z" fill="#2F2E41"/>
<path d="M669.331 32.628C678.341 32.628 685.645 25.3239 685.645 16.314C685.645 7.30402 678.341 0 669.331 0C660.321 0 653.017 7.30402 653.017 16.314C653.017 25.3239 660.321 32.628 669.331 32.628Z" fill="#2F2E41"/>
<path opacity="0.2" d="M251.315 585.8C274.781 585.8 293.804 579.728 293.804 572.239C293.804 564.75 274.781 558.679 251.315 558.679C227.849 558.679 208.827 564.75 208.827 572.239C208.827 579.728 227.849 585.8 251.315 585.8Z" fill="black"/>
<path d="M258.891 249.64H244.658V573.951H258.891V249.64Z" fill="#3F3D56"/>
<path d="M461.169 130.21L461.17 130.1L449.212 130.036L437.253 129.972L425.295 129.907L413.336 129.843L401.378 129.779L389.42 129.714L377.461 129.65L365.503 129.586L353.544 129.521L341.586 129.457L329.628 129.393L317.667 129.685C313.644 129.979 309.649 130.586 305.72 131.501C305.713 131.503 305.706 131.503 305.699 131.505C305.663 131.512 305.629 131.522 305.593 131.531C304.822 131.711 304.056 131.903 303.294 132.107C303.244 132.119 303.191 132.133 303.141 132.149C300.563 132.842 298.023 133.669 295.531 134.627C294.925 134.86 294.321 135.101 293.719 135.349C290.13 136.83 286.657 138.58 283.33 140.584C283.049 140.752 282.771 140.923 282.493 141.098L281.727 141.577C277.427 144.305 273.405 147.448 269.718 150.96C269.023 151.619 268.342 152.291 267.674 152.977C264.111 156.626 260.913 160.614 258.127 164.885L257.62 176.841L269.578 176.905L269.643 164.947L281.601 165.011L281.537 176.969L293.495 177.034L293.559 165.075L305.518 165.139L305.454 177.098L317.412 177.162L317.476 165.204L329.435 165.268L329.37 177.226L341.329 177.291L341.393 165.332L353.351 165.397L353.287 177.355L365.246 177.419L365.31 165.461L377.268 165.525L377.204 177.484L389.162 177.548L389.227 165.59L401.185 165.654L401.121 177.612L413.079 177.677L413.143 165.718L425.102 165.782L425.038 177.741L436.996 177.805L437.06 165.847L449.019 165.911L448.954 177.869L460.913 177.934L460.977 165.975L467.195 166.009L467.26 154.05L467.324 142.092L467.388 130.244L461.169 130.21Z" fill="#3F3D56"/>
<path d="M251.746 176.809C250.092 180.673 248.757 184.665 247.752 188.746L257.556 188.799L257.62 176.841L251.746 176.809Z" fill="#3F3D56"/>
<path d="M269.578 176.905L269.514 188.863L281.472 188.928L281.537 176.969L269.578 176.905Z" fill="#3F3D56"/>
<path d="M293.495 177.034L293.431 188.992L305.389 189.056L305.453 177.098L293.495 177.034Z" fill="#3F3D56"/>
<path d="M317.412 177.162L317.348 189.121L329.306 189.185L329.37 177.226L317.412 177.162Z" fill="#3F3D56"/>
<path d="M341.329 177.291L341.264 189.249L353.223 189.313L353.287 177.355L341.329 177.291Z" fill="#3F3D56"/>
<path d="M365.245 177.419L365.181 189.378L377.14 189.442L377.204 177.484L365.245 177.419Z" fill="#3F3D56"/>
<path d="M389.162 177.548L389.098 189.506L401.056 189.571L401.121 177.612L389.162 177.548Z" fill="#3F3D56"/>
<path d="M413.079 177.677L413.015 189.635L424.973 189.699L425.037 177.741L413.079 177.677Z" fill="#3F3D56"/>
<path d="M436.996 177.805L436.932 189.764L448.89 189.828L448.954 177.87L436.996 177.805Z" fill="#3F3D56"/>
<path d="M466.77 189.924C466.979 187.667 467.09 185.383 467.104 183.071L467.131 177.967L460.913 177.934L460.848 189.892L466.77 189.924Z" fill="#3F3D56"/>
<path d="M257.556 188.799L257.491 200.758L269.45 200.822L269.514 188.863L257.556 188.799Z" fill="#3F3D56"/>
<path d="M281.472 188.928L281.408 200.886L293.366 200.95L293.431 188.992L281.472 188.928Z" fill="#3F3D56"/>
<path d="M305.389 189.056L305.325 201.015L317.283 201.079L317.348 189.121L305.389 189.056Z" fill="#3F3D56"/>
<path d="M329.306 189.185L329.242 201.143L341.2 201.208L341.264 189.249L329.306 189.185Z" fill="#3F3D56"/>
<path d="M353.223 189.314L353.158 201.272L365.117 201.336L365.181 189.378L353.223 189.314Z" fill="#3F3D56"/>
<path d="M377.14 189.442L377.075 201.4L389.034 201.465L389.098 189.506L377.14 189.442Z" fill="#3F3D56"/>
<path d="M401.056 189.571L400.992 201.529L412.951 201.593L413.015 189.635L401.056 189.571Z" fill="#3F3D56"/>
<path d="M424.973 189.699L424.909 201.658L436.867 201.722L436.932 189.764L424.973 189.699Z" fill="#3F3D56"/>
<path d="M448.89 189.828L448.826 201.786L460.784 201.851L460.848 189.892L448.89 189.828Z" fill="#3F3D56"/>
<path d="M245.533 200.693L245.469 212.652L257.427 212.716L257.491 200.758L245.533 200.693Z" fill="#3F3D56"/>
<path d="M269.45 200.822L269.385 212.78L281.344 212.845L281.408 200.886L269.45 200.822Z" fill="#3F3D56"/>
<path d="M293.367 200.95L293.302 212.909L305.261 212.973L305.325 201.015L293.367 200.95Z" fill="#3F3D56"/>
<path d="M317.283 201.079L317.219 213.037L329.177 213.102L329.242 201.143L317.283 201.079Z" fill="#3F3D56"/>
<path d="M341.2 201.208L341.136 213.166L353.094 213.23L353.158 201.272L341.2 201.208Z" fill="#3F3D56"/>
<path d="M365.117 201.336L365.053 213.294L377.011 213.359L377.075 201.4L365.117 201.336Z" fill="#3F3D56"/>
<path d="M389.034 201.465L388.969 213.423L400.928 213.487L400.992 201.529L389.034 201.465Z" fill="#3F3D56"/>
<path d="M412.951 201.593L412.886 213.552L424.845 213.616L424.909 201.658L412.951 201.593Z" fill="#3F3D56"/>
<path d="M436.867 201.722L436.803 213.68L448.761 213.745L448.826 201.786L436.867 201.722Z" fill="#3F3D56"/>
<path d="M464.718 201.872L460.784 201.851L460.721 213.601C462.365 209.804 463.702 205.882 464.718 201.872Z" fill="#3F3D56"/>
<path d="M257.427 212.716L257.363 224.674L269.321 224.739L269.385 212.78L257.427 212.716Z" fill="#3F3D56"/>
<path d="M281.344 212.845L281.28 224.803L293.238 224.867L293.302 212.909L281.344 212.845Z" fill="#3F3D56"/>
<path d="M305.261 212.973L305.196 224.931L317.155 224.996L317.219 213.037L305.261 212.973Z" fill="#3F3D56"/>
<path d="M329.177 213.102L329.113 225.06L341.071 225.124L341.136 213.166L329.177 213.102Z" fill="#3F3D56"/>
<path d="M353.094 213.23L353.03 225.189L364.988 225.253L365.053 213.295L353.094 213.23Z" fill="#3F3D56"/>
<path d="M377.011 213.359L376.947 225.317L388.905 225.381L388.969 213.423L377.011 213.359Z" fill="#3F3D56"/>
<path d="M400.928 213.487L400.864 225.446L412.822 225.51L412.886 213.552L400.928 213.487Z" fill="#3F3D56"/>
<path d="M424.845 213.616L424.78 225.574L436.739 225.639L436.803 213.68L424.845 213.616Z" fill="#3F3D56"/>
<path d="M454.133 225.732C456.643 221.955 458.816 217.965 460.629 213.808L448.761 213.745L448.697 225.703L454.133 225.732Z" fill="#3F3D56"/>
<path d="M245.404 224.61L245.34 236.568L257.298 236.633L257.363 224.674L245.404 224.61Z" fill="#3F3D56"/>
<path d="M269.321 224.739L269.257 236.697L281.215 236.761L281.28 224.803L269.321 224.739Z" fill="#3F3D56"/>
<path d="M293.238 224.867L293.174 236.826L305.132 236.89L305.196 224.932L293.238 224.867Z" fill="#3F3D56"/>
<path d="M317.155 224.996L317.09 236.954L329.049 237.018L329.113 225.06L317.155 224.996Z" fill="#3F3D56"/>
<path d="M341.072 225.124L341.007 237.083L352.966 237.147L353.03 225.189L341.072 225.124Z" fill="#3F3D56"/>
<path d="M364.988 225.253L364.924 237.211L376.882 237.276L376.947 225.317L364.988 225.253Z" fill="#3F3D56"/>
<path d="M388.908 225.38L388.844 237.339L400.802 237.403L400.866 225.444L388.908 225.38Z" fill="#3F3D56"/>
<path d="M412.822 225.51L412.758 237.469L424.716 237.533L424.78 225.574L412.822 225.51Z" fill="#3F3D56"/>
<path d="M436.674 237.597L444.412 237.638L448.658 233.014L448.697 225.703L436.739 225.638L436.674 237.597Z" fill="#3F3D56"/>
<path d="M257.298 236.633L257.238 247.873L245.279 247.809L245.276 248.526L245.215 259.768L245.214 259.849L257.173 259.914V259.832L257.234 248.591L269.192 248.655L269.257 236.697L257.298 236.633Z" fill="#3F3D56"/>
<path d="M281.215 236.761L281.151 248.72L293.109 248.784L293.174 236.826L281.215 236.761Z" fill="#3F3D56"/>
<path d="M305.132 236.89L305.068 248.848L317.026 248.912L317.09 236.954L305.132 236.89Z" fill="#3F3D56"/>
<path d="M329.049 237.018L328.984 248.977L340.943 249.041L341.007 237.083L329.049 237.018Z" fill="#3F3D56"/>
<path d="M352.966 237.147L352.901 249.105L364.86 249.17L364.924 237.211L352.966 237.147Z" fill="#3F3D56"/>
<path d="M376.882 237.276L376.818 249.234L388.777 249.298L388.841 237.34L376.882 237.276Z" fill="#3F3D56"/>
<path d="M400.802 237.403L400.738 249.361L412.696 249.426L412.76 237.467L400.802 237.403Z" fill="#3F3D56"/>
<path d="M424.652 249.491L429.258 249.516C431.813 247.982 434.276 246.301 436.637 244.483L436.674 237.597L424.716 237.533L424.652 249.491Z" fill="#3F3D56"/>
<path d="M269.192 248.655L269.132 259.978L281.09 260.042L281.151 248.72L269.192 248.655Z" fill="#3F3D56"/>
<path d="M293.109 248.784L293.048 260.106L305.007 260.171L305.068 248.848L293.109 248.784Z" fill="#3F3D56"/>
<path d="M317.026 248.913L316.965 260.235L328.924 260.299L328.984 248.977L317.026 248.913Z" fill="#3F3D56"/>
<path d="M340.943 249.041L340.882 260.363L352.84 260.428L352.901 249.105L340.943 249.041Z" fill="#3F3D56"/>
<path d="M364.86 249.17L364.799 260.492L376.757 260.556L376.818 249.234L364.86 249.17Z" fill="#3F3D56"/>
<path d="M388.716 260.621C391.46 260.635 394.203 260.507 396.933 260.237L400.679 259.774L400.735 249.363L388.777 249.298L388.716 260.621Z" fill="#3F3D56"/>
<path d="M412.653 257.011C416.779 255.708 420.788 254.061 424.638 252.086L424.652 249.491L412.693 249.427L412.653 257.011Z" fill="#3F3D56"/>
<path d="M293.302 212.909L293.238 224.867L305.196 224.931L305.261 212.973L293.302 212.909Z" fill="#5CB85C"/>
<path d="M365.181 189.378L365.117 201.336L377.075 201.4L377.14 189.442L365.181 189.378Z" fill="#5CB85C"/>
<path d="M247.752 188.746C246.789 192.672 246.131 196.667 245.786 200.694L257.491 200.757L257.556 188.799L247.752 188.746Z" fill="#5CB85C"/>
<path d="M400.679 259.774C404.737 259.172 408.741 258.249 412.653 257.011L412.693 249.427L400.735 249.363L400.679 259.774Z" fill="#5CB85C"/>
<path d="M377.075 201.4L377.011 213.359L388.969 213.423L389.034 201.465L377.075 201.4Z" fill="#5CB85C"/>
<path d="M376.947 225.317L376.882 237.276L388.841 237.34L388.905 225.382L376.947 225.317Z" fill="#5CB85C"/>
<path d="M437.06 165.847L436.996 177.805L448.954 177.869L449.019 165.911L437.06 165.847Z" fill="#5CB85C"/>
<path d="M460.977 165.975L460.913 177.934L467.131 177.967L467.195 166.009L460.977 165.975Z" fill="#5CB85C"/>
<path d="M425.038 177.741L424.973 189.699L436.932 189.764L436.996 177.805L425.038 177.741Z" fill="#5CB85C"/>
<path d="M448.954 177.869L448.89 189.828L460.848 189.892L460.913 177.934L448.954 177.869Z" fill="#5CB85C"/>
<path d="M436.932 189.764L436.867 201.722L448.826 201.786L448.89 189.828L436.932 189.764Z" fill="#5CB85C"/>
<path d="M464.718 201.872C465.712 197.949 466.398 193.954 466.77 189.924L460.848 189.892L460.784 201.851L464.718 201.872Z" fill="#5CB85C"/>
<path d="M424.909 201.658L424.845 213.616L436.803 213.68L436.867 201.722L424.909 201.658Z" fill="#5CB85C"/>
<path d="M448.826 201.786L448.761 213.745L460.72 213.809L460.784 201.851L448.826 201.786Z" fill="#5CB85C"/>
<path d="M436.803 213.68L436.739 225.639L448.697 225.703L448.761 213.745L436.803 213.68Z" fill="#5CB85C"/>
<path d="M424.78 225.575L424.716 237.533L436.674 237.597L436.739 225.639L424.78 225.575Z" fill="#5CB85C"/>
<path d="M454.133 225.732L448.697 225.703L448.658 233.014C450.623 230.696 452.451 228.264 454.133 225.732Z" fill="#5CB85C"/>
<path d="M412.761 237.467L412.696 249.426L424.655 249.49L424.719 237.531L412.761 237.467Z" fill="#5CB85C"/>
<path d="M437.577 243.749C439.972 241.847 442.254 239.807 444.412 237.639L436.674 237.597L436.637 244.483C436.952 244.241 437.267 243.996 437.577 243.749Z" fill="#5CB85C"/>
<path d="M293.559 165.075L293.495 177.034L305.454 177.098L305.518 165.14L293.559 165.075Z" fill="#5CB85C"/>
<path d="M317.476 165.204L317.412 177.162L329.37 177.226L329.435 165.268L317.476 165.204Z" fill="#5CB85C"/>
<path d="M341.393 165.332L341.329 177.291L353.287 177.355L353.351 165.397L341.393 165.332Z" fill="#5CB85C"/>
<path d="M365.31 165.461L365.246 177.419L377.204 177.484L377.268 165.525L365.31 165.461Z" fill="#5CB85C"/>
<path d="M389.227 165.59L389.162 177.548L401.121 177.612L401.185 165.654L389.227 165.59Z" fill="#5CB85C"/>
<path d="M413.143 165.718L413.079 177.677L425.038 177.741L425.102 165.782L413.143 165.718Z" fill="#5CB85C"/>
<path d="M305.453 177.098L305.389 189.056L317.348 189.12L317.412 177.162L305.453 177.098Z" fill="#5CB85C"/>
<path d="M329.37 177.226L329.306 189.185L341.264 189.249L341.329 177.291L329.37 177.226Z" fill="#5CB85C"/>
<path d="M353.287 177.355L353.223 189.313L365.181 189.378L365.245 177.419L353.287 177.355Z" fill="#5CB85C"/>
<path d="M377.204 177.484L377.14 189.442L389.098 189.506L389.162 177.548L377.204 177.484Z" fill="#5CB85C"/>
<path d="M401.121 177.612L401.056 189.571L413.015 189.635L413.079 177.676L401.121 177.612Z" fill="#5CB85C"/>
<path d="M269.514 188.863L269.45 200.822L281.408 200.886L281.472 188.928L269.514 188.863Z" fill="#5CB85C"/>
<path d="M317.348 189.12L317.283 201.079L329.242 201.143L329.306 189.185L317.348 189.12Z" fill="#5CB85C"/>
<path d="M341.264 189.249L341.2 201.208L353.158 201.272L353.223 189.313L341.264 189.249Z" fill="#5CB85C"/>
<path d="M389.098 189.506L389.034 201.465L400.992 201.529L401.056 189.571L389.098 189.506Z" fill="#5CB85C"/>
<path d="M413.015 189.635L412.951 201.593L424.909 201.658L424.973 189.699L413.015 189.635Z" fill="#5CB85C"/>
<path d="M257.491 200.757L257.427 212.716L269.385 212.78L269.45 200.822L257.491 200.757Z" fill="#5CB85C"/>
<path d="M281.408 200.886L281.344 212.844L293.302 212.909L293.366 200.95L281.408 200.886Z" fill="#5CB85C"/>
<path d="M329.242 201.143L329.177 213.102L341.136 213.166L341.2 201.207L329.242 201.143Z" fill="#5CB85C"/>
<path d="M353.159 201.272L353.094 213.23L365.053 213.295L365.117 201.336L353.159 201.272Z" fill="#5CB85C"/>
<path d="M400.992 201.529L400.928 213.488L412.886 213.552L412.951 201.593L400.992 201.529Z" fill="#5CB85C"/>
<path d="M245.469 212.651L245.404 224.61L257.363 224.674L257.427 212.716L245.469 212.651Z" fill="#5CB85C"/>
<path d="M269.385 212.78L269.321 224.739L281.279 224.803L281.344 212.844L269.385 212.78Z" fill="#5CB85C"/>
<path d="M251.746 176.809L257.62 176.841L258.163 164.885C255.72 168.688 253.575 172.675 251.746 176.809Z" fill="#5CB85C"/>
<path d="M269.643 164.947L269.578 176.905L281.537 176.969L281.601 165.011L269.643 164.947Z" fill="#5CB85C"/>
<path d="M257.62 176.841L257.556 188.799L269.514 188.863L269.578 176.905L257.62 176.841Z" fill="#5CB85C"/>
<path d="M281.537 176.969L281.472 188.928L293.431 188.992L293.495 177.034L281.537 176.969Z" fill="#5CB85C"/>
<path d="M293.431 188.992L293.366 200.95L305.325 201.015L305.389 189.056L293.431 188.992Z" fill="#5CB85C"/>
<path d="M305.325 201.015L305.261 212.973L317.219 213.037L317.283 201.079L305.325 201.015Z" fill="#5CB85C"/>
<path d="M317.219 213.037L317.155 224.996L329.113 225.06L329.177 213.102L317.219 213.037Z" fill="#5CB85C"/>
<path d="M341.136 213.166L341.072 225.124L353.03 225.189L353.094 213.23L341.136 213.166Z" fill="#5CB85C"/>
<path d="M365.053 213.295L364.988 225.253L376.947 225.317L377.011 213.359L365.053 213.295Z" fill="#5CB85C"/>
<path d="M388.969 213.423L388.905 225.382L400.864 225.446L400.928 213.487L388.969 213.423Z" fill="#5CB85C"/>
<path d="M412.886 213.552L412.822 225.51L424.78 225.575L424.845 213.616L412.886 213.552Z" fill="#5CB85C"/>
<path d="M257.363 224.674L257.298 236.633L269.257 236.697L269.321 224.738L257.363 224.674Z" fill="#5CB85C"/>
<path d="M281.28 224.803L281.215 236.761L293.174 236.826L293.238 224.867L281.28 224.803Z" fill="#5CB85C"/>
<path d="M305.196 224.931L305.132 236.89L317.09 236.954L317.155 224.996L305.196 224.931Z" fill="#5CB85C"/>
<path d="M329.113 225.06L329.049 237.019L341.007 237.083L341.072 225.124L329.113 225.06Z" fill="#5CB85C"/>
<path d="M353.03 225.189L352.966 237.147L364.924 237.211L364.988 225.253L353.03 225.189Z" fill="#5CB85C"/>
<path d="M400.863 225.446L400.799 237.404L412.758 237.469L412.822 225.51L400.863 225.446Z" fill="#5CB85C"/>
<path d="M245.34 236.568L245.276 248.527L257.234 248.591L257.298 236.633L245.34 236.568Z" fill="#5CB85C"/>
<path d="M269.257 236.697L269.193 248.655L281.151 248.72L281.215 236.761L269.257 236.697Z" fill="#5CB85C"/>
<path d="M293.174 236.826L293.109 248.784L305.068 248.848L305.132 236.89L293.174 236.826Z" fill="#5CB85C"/>
<path d="M317.09 236.954L317.026 248.913L328.985 248.977L329.049 237.018L317.09 236.954Z" fill="#5CB85C"/>
<path d="M341.007 237.083L340.943 249.041L352.901 249.106L352.966 237.147L341.007 237.083Z" fill="#5CB85C"/>
<path d="M364.924 237.211L364.86 249.17L376.818 249.234L376.882 237.276L364.924 237.211Z" fill="#5CB85C"/>
<path d="M388.841 237.34L388.776 249.298L400.735 249.363L400.799 237.404L388.841 237.34Z" fill="#5CB85C"/>
<path d="M257.234 248.591L257.173 259.913L269.132 259.978L269.192 248.655L257.234 248.591Z" fill="#5CB85C"/>
<path d="M281.151 248.72L281.09 260.042L293.048 260.106L293.109 248.784L281.151 248.72Z" fill="#5CB85C"/>
<path d="M305.068 248.848L305.007 260.17L316.965 260.235L317.026 248.912L305.068 248.848Z" fill="#5CB85C"/>
<path d="M328.984 248.977L328.924 260.299L340.882 260.363L340.943 249.041L328.984 248.977Z" fill="#5CB85C"/>
<path d="M352.901 249.106L352.84 260.428L364.799 260.492L364.86 249.17L352.901 249.106Z" fill="#5CB85C"/>
<path d="M376.818 249.234L376.757 260.556L388.716 260.62L388.776 249.298L376.818 249.234Z" fill="#5CB85C"/>
<path d="M429.258 249.516L424.652 249.491L424.638 252.086C426.211 251.281 427.751 250.425 429.258 249.516Z" fill="#5CB85C"/>
<path d="M583.928 354.704L582.247 354.041L523.379 502.993C520.586 497.096 510.655 482.025 481.768 480.969C480.33 480.925 478.932 481.441 477.868 482.409C476.804 483.377 476.157 484.72 476.066 486.156L475.565 493.672C475.289 497.761 476.597 501.798 479.217 504.948C481.838 508.098 485.569 510.119 489.639 510.593C501.457 511.959 517.049 512.206 524.057 505.593L524.263 505.674L583.928 354.704Z" fill="#3F3D56"/>
</g>
<defs>
<clipPath id="clip0_5_233">
<rect width="730.441" height="631" fill="white"/>
</clipPath>
</defs>
</svg>
