<svg width="642" height="631" viewBox="0 0 642 631" fill="none" xmlns="http://www.w3.org/2000/svg">
<g clip-path="url(#clip0_5_192)">
<path d="M93.6857 402.534C145.427 402.534 187.371 360.589 187.371 308.848C187.371 257.107 145.427 215.162 93.6857 215.162C41.9445 215.162 0 257.107 0 308.848C0 360.589 41.9445 402.534 93.6857 402.534Z" fill="#F2F2F2"/>
<path d="M94.5228 312.754C115.156 312.754 131.882 296.028 131.882 275.395C131.882 254.762 115.156 238.036 94.5228 238.036C73.8901 238.036 57.1639 254.762 57.1639 275.395C57.1639 296.028 73.8901 312.754 94.5228 312.754Z" fill="#2F2E41"/>
<path d="M187.879 93.8519C187.846 112.381 182.319 130.485 171.998 145.873C161.676 161.261 147.023 173.243 129.892 180.303C112.76 187.364 93.9202 189.186 75.7534 185.539C57.5866 181.892 40.9092 172.939 27.8303 159.814C14.7514 146.689 5.85827 129.98 2.27561 111.8C-1.30704 93.6203 0.581649 74.7866 7.70284 57.6803C14.824 40.5741 26.8579 25.9637 42.2826 15.6967C57.7074 5.42974 75.8303 -0.0327039 94.3595 0.000147308C106.672 -0.00997347 118.864 2.41309 130.237 7.1301C141.609 11.8471 151.938 18.765 160.628 27.4864C169.318 36.2077 176.2 46.5604 180.876 57.9496C185.553 69.3388 187.933 81.54 187.879 93.8519Z" fill="#F2F2F2"/>
<path d="M315.999 402.534C367.741 402.534 409.685 360.589 409.685 308.848C409.685 257.107 367.741 215.162 315.999 215.162C264.258 215.162 222.314 257.107 222.314 308.848C222.314 360.589 264.258 402.534 315.999 402.534Z" fill="#F2F2F2"/>
<path d="M315.727 187.371C367.468 187.371 409.413 145.427 409.413 93.6857C409.413 41.9445 367.468 0 315.727 0C263.986 0 222.041 41.9445 222.041 93.6857C222.041 145.427 263.986 187.371 315.727 187.371Z" fill="#F2F2F2"/>
<path d="M544.061 187.371C595.802 187.371 637.747 145.427 637.747 93.6857C637.747 41.9445 595.802 0 544.061 0C492.32 0 450.375 41.9445 450.375 93.6857C450.375 145.427 492.32 187.371 544.061 187.371Z" fill="#F2F2F2"/>
<path d="M547.447 402.534C599.188 402.534 641.133 360.589 641.133 308.848C641.133 257.107 599.188 215.162 547.447 215.162C495.706 215.162 453.761 257.107 453.761 308.848C453.761 360.589 495.706 402.534 547.447 402.534Z" fill="#F2F2F2"/>
<path d="M187.879 537.314C187.879 555.843 182.385 573.956 172.09 589.363C161.796 604.769 147.164 616.777 130.045 623.868C112.927 630.959 94.0895 632.814 75.9163 629.199C57.743 625.584 41.0498 616.662 27.9477 603.559C14.8455 590.457 5.92276 573.764 2.30788 555.591C-1.30701 537.418 0.54829 518.58 7.63914 501.462C14.73 484.343 26.7379 469.711 42.1445 459.417C57.551 449.122 75.6642 443.628 94.1935 443.628C106.512 443.573 118.719 445.959 130.11 450.648C141.501 455.336 151.851 462.235 160.562 470.946C169.272 479.656 176.171 490.006 180.859 501.397C185.548 512.788 187.934 524.995 187.879 537.314Z" fill="#F2F2F2"/>
<path d="M321.747 631C373.489 631 415.433 589.055 415.433 537.314C415.433 485.573 373.489 443.628 321.747 443.628C270.006 443.628 228.062 485.573 228.062 537.314C228.062 589.055 270.006 631 321.747 631Z" fill="#F2F2F2"/>
<path d="M50.771 63.2098C54.6449 50.8639 63.4542 39.5407 75.6372 35.3671C87.821 31.1936 105.661 37.5513 114.821 46.6798C131.575 63.3776 135.664 120.741 124.153 138.868C121.863 138.747 113.963 138.657 111.645 138.57L108.367 127.645V138.463C104.675 138.349 100.955 138.27 97.2052 138.226C84.6336 138.07 72.612 133.047 63.6678 124.211C54.7235 115.375 49.5533 103.416 49.2441 90.8468C48.9441 78.8228 49.2444 68.075 50.771 63.2098Z" fill="#2F2E41"/>
<path d="M92.804 104.127C107.55 104.127 119.504 92.1731 119.504 77.4272C119.504 62.6813 107.55 50.7274 92.804 50.7274C78.0581 50.7274 66.1042 62.6813 66.1042 77.4272C66.1042 92.1731 78.0581 104.127 92.804 104.127Z" fill="#9E616A"/>
<path d="M69.7612 53.9784L100.503 38.585C106.789 41.4171 112.201 45.8792 116.181 51.5084C120.16 57.1375 122.561 63.7288 123.135 70.5987L123.901 79.7771L111.028 76.5001L109.617 64.7637L107.431 75.5846L101.49 74.073L101.547 55.8522L95.6021 74.06L74.3836 69.1851L69.7612 53.9784Z" fill="#2F2E41"/>
<path d="M290.273 273.694C297.578 273.694 303.5 267.772 303.5 260.467C303.5 253.162 297.578 247.24 290.273 247.24C282.968 247.24 277.046 253.162 277.046 260.467C277.046 267.772 282.968 273.694 290.273 273.694Z" fill="#2F2E41"/>
<path d="M311.436 323.956C329.942 323.956 344.944 308.954 344.944 290.448C344.944 271.942 329.942 256.94 311.436 256.94C292.93 256.94 277.928 271.942 277.928 290.448C277.928 308.954 292.93 323.956 311.436 323.956Z" fill="#2F2E41"/>
<path d="M314.209 323.948C329.247 323.948 341.438 311.757 341.438 296.719C341.438 281.68 329.247 269.49 314.209 269.49C299.17 269.49 286.979 281.68 286.979 296.719C286.979 311.757 299.17 323.948 314.209 323.948Z" fill="#9E616A"/>
<path d="M332.7 268.962C327.929 266.054 322.463 264.48 316.876 264.407C311.288 264.333 305.783 265.762 300.937 268.544C296.09 271.326 292.08 275.359 289.326 280.221C286.572 285.083 285.175 290.596 285.28 296.183C299.155 299.667 313.731 302.332 328.527 297.016L332.021 288.464L334.081 297.023C338.587 298.864 343.105 300.423 347.623 297.005C347.807 291.434 346.526 285.911 343.907 280.99C341.288 276.069 337.424 271.922 332.7 268.962Z" fill="#2F2E41"/>
<path d="M277.958 224.561C268.812 220.368 257.335 222.335 249.72 228.911C242.104 235.487 238.483 246.19 239.954 256.144C241.453 266.298 247.627 275.043 253.317 283.586C259.008 292.129 264.567 301.49 264.56 311.755C264.556 319.148 261.62 326.237 256.395 331.469C251.171 336.7 244.086 339.646 236.693 339.661C245.37 343.396 254.426 347.205 263.863 346.762C273.299 346.319 283.19 340.253 284.73 330.932C285.839 324.216 282.544 317.667 279.796 311.44C275.32 301.292 272.084 290.642 270.16 279.719C269.242 274.506 268.644 269.025 270.344 264.012C271.697 260.298 274.208 257.116 277.507 254.937C280.806 252.758 284.718 251.696 288.666 251.909L291.784 249.104C293.171 239.138 287.104 228.755 277.958 224.561Z" fill="#2F2E41"/>
<path d="M505.826 57.041C504.54 63.9493 502.432 70.6788 499.546 77.0857C483.02 112.047 530.083 100.651 546.902 100.651C565.291 100.651 582.886 110.321 580.199 67.3549C579.051 49.0016 565.291 34.0585 546.902 34.0585C531.195 34.0585 509.111 41.0401 505.826 57.041Z" fill="#2F2E41"/>
<path d="M544.147 100.643C559.09 100.643 571.204 88.5293 571.204 73.586C571.204 58.6428 559.09 46.5289 544.147 46.5289C529.204 46.5289 517.09 58.6428 517.09 73.586C517.09 88.5293 529.204 100.643 544.147 100.643Z" fill="#FFB6B6"/>
<path d="M525.773 46.005C530.514 43.1146 535.945 41.551 541.497 41.4778C547.049 41.4046 552.519 42.8244 557.335 45.5889C562.151 48.3533 566.136 52.3608 568.873 57.1923C571.609 62.0238 572.998 67.5019 572.893 73.0538C559.106 76.5153 544.622 79.1643 529.919 73.8817L526.447 65.3838L524.4 73.888C519.922 75.7181 515.433 77.2666 510.944 73.8703C510.761 68.3341 512.034 62.8468 514.636 57.9569C517.238 53.0669 521.078 48.9456 525.773 46.005Z" fill="#2F2E41"/>
<path d="M94.538 317.661C112.97 317.661 127.912 302.719 127.912 284.287C127.912 265.855 112.97 250.913 94.538 250.913C76.1059 250.913 61.1637 265.855 61.1637 284.287C61.1637 302.719 76.1059 317.661 94.538 317.661Z" fill="#FFB8B8"/>
<path d="M319.685 547.032C335.382 547.032 348.107 534.307 348.107 518.61C348.107 502.913 335.382 490.188 319.685 490.188C303.988 490.188 291.263 502.913 291.263 518.61C291.263 534.307 303.988 547.032 319.685 547.032Z" fill="#9E616A"/>
<path d="M319.545 103.242C336.417 103.242 350.094 89.5649 350.094 72.693C350.094 55.8212 336.417 42.1438 319.545 42.1438C302.673 42.1438 288.996 55.8212 288.996 72.693C288.996 89.5649 302.673 103.242 319.545 103.242Z" fill="#FFB8B8"/>
<path d="M346.443 52.5117C346.443 52.5117 354.397 37.3061 336.898 35.9238C336.898 35.9238 321.98 22.3912 306.774 33.4498C306.774 33.4498 298.48 33.4498 293.945 42.8354C293.945 42.8354 287.422 40.3615 285.988 46.9824C285.988 46.9824 281.215 60.8056 285.988 73.2466C290.761 85.6875 292.347 87.0699 292.347 87.0699C292.347 87.0699 288.998 71.6314 308.089 70.249C327.181 68.8667 344.695 56.9067 346.286 72.1123C347.877 87.3178 349.626 80.4489 349.626 80.4489C349.626 80.4489 364.738 58.7322 346.443 52.5117Z" fill="#2F2E41"/>
<path d="M544.861 320.454C561.378 320.454 574.767 307.064 574.767 290.548C574.767 274.032 561.378 260.643 544.861 260.643C528.345 260.643 514.956 274.032 514.956 290.548C514.956 307.064 528.345 320.454 544.861 320.454Z" fill="#FFB6B6"/>
<path d="M132.509 514.898L132.045 515.733C136.171 505.565 132.419 493.034 125.059 485.367C117.699 477.7 107.467 474.194 97.391 472.804C89.9115 471.771 82.1479 471.801 75.036 474.541C64.737 478.508 56.8684 487.693 50.2988 497.247C47.2938 501.617 44.3392 506.599 44.6385 512.061C44.9164 517.13 47.9252 521.431 50.3891 525.732C52.8533 530.032 54.9109 535.368 53.1425 540.061C52.0887 542.858 49.8615 544.873 48.0544 547.161C46.2472 549.449 44.7607 552.542 45.6336 555.412C46.0212 556.511 46.687 557.49 47.5661 558.254C48.4453 559.018 49.5076 559.541 50.6492 559.771C52.8338 560.28 55.1003 559.948 57.3128 559.613L114.743 550.937C118.645 550.347 122.347 548.822 125.533 546.493C128.719 544.163 131.294 541.098 133.039 537.558C134.785 534.018 135.648 530.108 135.555 526.163C135.463 522.217 134.418 518.352 132.509 514.898Z" fill="#2F2E41"/>
<path d="M117.508 526.955C119.992 511.648 109.596 497.225 94.2892 494.741C78.982 492.257 64.5593 502.653 62.0753 517.96C59.5913 533.267 69.9866 547.689 85.2938 550.173C100.601 552.657 115.024 542.262 117.508 526.955Z" fill="#FFB9B9"/>
<path d="M164.54 599.171C148.31 617.639 125.467 628.984 100.944 630.756C76.4217 632.528 52.1855 624.586 33.4679 608.643L41.5035 586.221C43.3194 582.239 46.1851 578.826 49.7933 576.348C53.4014 573.87 57.6159 572.421 61.9849 572.157L67.097 571.843L79.2867 561.33C79.2867 561.33 112.131 560.157 111.644 559.595L131.539 571.562L131.522 571.48L139.343 571.959C143.713 572.222 147.928 573.671 151.536 576.148C155.144 578.626 158.01 582.04 159.825 586.023L164.54 599.171Z" fill="#5CB85C"/>
<path d="M390.826 599.171C374.596 617.639 351.753 628.984 327.231 630.756C302.708 632.528 278.472 624.586 259.754 608.643L267.79 586.221C269.605 582.239 272.471 578.826 276.079 576.348C279.687 573.87 283.902 572.421 288.271 572.157L293.383 571.843L305.573 561.33C305.573 561.33 338.417 560.157 337.93 559.595L357.825 571.562L357.808 571.48L365.629 571.959C369.999 572.222 374.214 573.671 377.822 576.148C381.43 578.626 384.296 582.04 386.111 586.023L390.826 599.171Z" fill="#5CB85C"/>
<path d="M116.425 496.397C115.7 492.563 111.789 490.809 108.438 489.959C98.7196 487.48 88.6096 486.924 78.6776 488.325C71.4373 489.358 64.0252 491.634 58.7718 497.286C54.5357 502.044 52.1355 508.157 52.0024 514.527C51.7882 518.335 52.6391 522.128 54.4598 525.48C56.3504 528.68 59.5727 531.001 62.8992 530.92L63.2361 532.091C77.3335 530.127 90.4287 521.356 98.6762 508.353C97.1283 513.88 94.0479 518.856 89.791 522.706C99.3087 518.898 107.582 512.522 113.689 504.288C115.357 502.075 116.976 499.314 116.425 496.397Z" fill="#2F2E41"/>
<path d="M163.714 370.407C147.484 388.875 124.641 400.22 100.119 401.992C75.5958 403.764 51.3596 395.822 32.642 379.88L40.6776 357.458C42.4935 353.475 45.3592 350.062 48.9674 347.584C52.5755 345.107 56.79 343.658 61.159 343.393L66.271 343.079L78.4607 332.566C78.4607 332.566 111.305 331.393 110.818 330.832L130.713 342.799L130.696 342.716L138.517 343.195C142.887 343.458 147.102 344.907 150.71 347.385C154.318 349.863 157.184 353.276 158.999 357.259L163.714 370.407Z" fill="#5CB85C"/>
<path d="M386.491 371.531C370.26 389.999 347.418 401.344 322.895 403.116C298.372 404.888 274.136 396.946 255.418 381.003L263.454 358.581C265.27 354.599 268.136 351.186 271.744 348.708C275.352 346.23 279.566 344.782 283.935 344.517L289.047 344.203L301.237 333.69C301.237 333.69 334.082 332.517 333.594 331.956L353.489 343.922L353.473 343.84L361.294 344.319C365.663 344.582 369.878 346.031 373.486 348.508C377.095 350.986 379.96 354.4 381.775 358.383L386.491 371.531Z" fill="#5CB85C"/>
<path d="M617.732 371.531C601.501 389.999 578.659 401.344 554.136 403.116C529.613 404.888 505.377 396.946 486.659 381.003L494.695 358.581C496.511 354.599 499.377 351.186 502.985 348.708C506.593 346.23 510.808 344.782 515.176 344.517L520.289 344.203L532.478 333.69C532.478 333.69 565.323 332.517 564.835 331.956L584.73 343.922L584.714 343.84L592.535 344.319C596.904 344.582 601.119 346.031 604.727 348.508C608.336 350.986 611.201 354.4 613.016 358.383L617.732 371.531Z" fill="#5CB85C"/>
<path d="M163.714 155.683C147.484 174.151 124.641 185.496 100.119 187.268C75.5958 189.04 51.3596 181.098 32.642 165.156L40.6776 142.734C42.4935 138.751 45.3592 135.338 48.9674 132.86C52.5755 130.383 56.79 128.934 61.159 128.669L66.271 128.355L78.4607 117.842C78.4607 117.842 111.305 116.669 110.818 116.108L130.713 128.075L130.696 127.992L138.517 128.471C142.887 128.734 147.102 130.183 150.71 132.661C154.318 135.138 157.184 138.552 158.999 142.535L163.714 155.683Z" fill="#5CB85C"/>
<path d="M385.665 155.981C369.434 174.449 346.592 185.794 322.069 187.566C297.546 189.338 273.31 181.396 254.592 165.454L262.628 143.031C264.444 139.049 267.31 135.636 270.918 133.158C274.526 130.68 278.74 129.232 283.109 128.967L288.222 128.653L300.411 118.14C300.411 118.14 333.256 116.967 332.768 116.406L352.663 128.372L352.647 128.29L360.468 128.769C364.837 129.032 369.052 130.481 372.66 132.959C376.269 135.436 379.134 138.85 380.949 142.833L385.665 155.981Z" fill="#5CB85C"/>
<path d="M616.906 155.981C600.675 174.449 577.833 185.794 553.31 187.566C528.787 189.338 504.551 181.396 485.834 165.454L493.869 143.031C495.685 139.049 498.551 135.636 502.159 133.158C505.767 130.68 509.982 129.232 514.351 128.967L519.463 128.653L531.652 118.14C531.652 118.14 564.497 116.967 564.01 116.406L583.905 128.372L583.888 128.29L591.709 128.769C596.078 129.032 600.293 130.481 603.902 132.959C607.51 135.436 610.375 138.85 612.19 142.833L616.906 155.981Z" fill="#5CB85C"/>
<path d="M576.402 272.001C573.875 262.956 568.133 255.144 560.255 250.032C553.976 246.017 546.142 243.966 539.029 246.09C531.916 248.214 526.027 255.194 526.492 262.736C523.925 261.863 521.006 263.025 519.127 265.011C517.247 266.997 516.237 269.668 515.513 272.328C513.23 280.784 513.382 289.712 515.949 298.086L515.808 299.288C519.278 298.714 521.91 295.736 523.547 292.564C525.184 289.392 526.126 285.872 527.9 282.778C529.674 279.683 532.62 276.922 536.134 276.826L535.824 282.198C538.848 280.64 541.871 279.082 544.895 277.525C544.176 279.245 543.456 280.965 542.737 282.686C545.378 281.582 548.018 280.478 550.659 279.375C550.364 281.029 550.068 282.683 549.773 284.338C552.392 278.377 560.491 275.759 566 279.091C569.199 281.027 571.298 284.476 572.402 288.098C573.507 291.72 573.725 295.552 573.936 299.339C578.016 290.819 578.891 281.114 576.402 272.001Z" fill="#2F2E41"/>
<path d="M293.86 531.75C293.804 531.595 293.754 531.437 293.698 531.282C293.589 531.378 293.484 531.478 293.365 531.568L293.86 531.75Z" fill="#2F2E41"/>
<path d="M353.731 508.499C353.586 505.615 352.83 502.795 351.515 500.224C350.2 497.653 348.355 495.39 346.101 493.585C344.445 492.275 342.529 491.168 341.432 489.364C340.807 488.086 340.277 486.764 339.846 485.408C337.664 480.215 331.446 477.455 325.868 478.241C320.29 479.028 315.463 482.78 312.212 487.38C310.61 486.612 308.821 486.319 307.058 486.537C305.295 486.754 303.631 487.472 302.263 488.606C300.896 489.739 299.882 491.241 299.341 492.933C298.8 494.625 298.756 496.437 299.213 498.154C296.324 495.827 291.652 497.688 289.849 500.929C288.046 504.171 288.332 508.137 288.868 511.807C289.839 518.441 291.457 524.963 293.698 531.282C296.511 528.805 296.338 524.295 295.994 520.482C295.637 516.521 295.851 511.685 299.315 509.73C302.661 507.842 306.723 509.915 310.413 510.987C313.33 511.814 316.392 511.997 319.387 511.526C322.382 511.055 325.24 509.94 327.763 508.258C329.685 506.958 331.396 505.329 333.468 504.284C335.54 503.238 338.177 502.875 340.106 504.166C341.867 505.344 342.584 507.541 343.183 509.574C344.604 514.392 346.025 519.209 347.445 524.027C349.531 522.03 351.169 519.613 352.253 516.937C353.336 514.26 353.84 511.384 353.731 508.499Z" fill="#2F2E41"/>
<path d="M129.748 272.583C129.983 270.091 130.09 267.589 130.07 265.086C130.206 260.137 129.299 255.214 127.408 250.638C125.082 245.571 120.935 241.565 115.792 239.415C110.693 237.359 104.995 237.364 99.8998 239.429C95.2997 236.523 90.1887 234.219 84.8061 233.933C79.4234 233.648 73.7324 235.645 70.4153 240.041C69.6746 241.201 68.8333 242.294 67.9012 243.307C65.2348 245.776 61.1827 245.42 57.6386 244.915C59.2282 246.278 60.8182 247.64 62.4086 249.002C60.4844 249.505 58.5601 250.008 56.6356 250.51C58.8812 251.872 61.1266 253.234 63.3718 254.596C56.853 258.509 53.8901 267.049 54.6728 274.805C55.4132 282.148 58.9585 288.863 63.1965 294.832C64.8871 291.264 64.5228 286.995 64.4949 282.977C64.4795 281.674 64.559 280.371 64.7329 279.079C79.0555 282.512 94.0208 284.716 109.198 279.263L112.243 271.809C112.671 271.853 113.098 271.894 113.525 271.939L115.29 279.27C119.29 280.905 123.299 282.334 127.31 280.832C127.505 281.965 127.622 283.12 127.713 284.231C128.057 282.902 128.355 281.564 128.625 280.22C129.155 279.936 129.662 279.612 130.143 279.25C130.24 277.02 130.108 274.786 129.748 272.583Z" fill="#2F2E41"/>
</g>
<defs>
<clipPath id="clip0_5_192">
<rect width="641.133" height="631" fill="white"/>
</clipPath>
</defs>
</svg>
